<svg id="visual" viewBox="0 0 900 600" width="900" height="600" xmlns="http://www.w3.org/2000/svg" xmlns:xlink="http://www.w3.org/1999/xlink" version="1.1"><g stroke-width="1" stroke-linejoin="bevel"><path d="M425 332.9L422 333L412 372.7Z" fill="#004632" stroke="#004632"></path><path d="M412 372.7L451 377.7L425 332.9Z" fill="#006259" stroke="#006259"></path><path d="M451 377.7L468 363.9L425 332.9Z" fill="#00c1ff" stroke="#00c1ff"></path><path d="M425 332.9L396 316.9L422 333Z" fill="#004632" stroke="#004632"></path><path d="M422 333L396 316.9L412 372.7Z" fill="#006259" stroke="#006259"></path><path d="M462 248.1L386 307.9L396 316.9Z" fill="#005445" stroke="#005445"></path><path d="M396 316.9L350 315L412 372.7Z" fill="#005445" stroke="#005445"></path><path d="M339 418.7L394 412.6L412 372.7Z" fill="#004632" stroke="#004632"></path><path d="M412 372.7L394 412.6L451 377.7Z" fill="#003920" stroke="#003920"></path><path d="M438 456.4L478 410.6L451 377.7Z" fill="#006259" stroke="#006259"></path><path d="M451 377.7L478 410.6L468 363.9Z" fill="#006259" stroke="#006259"></path><path d="M478 410.6L496 395.7L468 363.9Z" fill="#004632" stroke="#004632"></path><path d="M386 307.9L350 315L396 316.9Z" fill="#00c1ff" stroke="#00c1ff"></path><path d="M339 418.7L396 434.6L394 412.6Z" fill="#004632" stroke="#004632"></path><path d="M394 412.6L438 456.4L451 377.7Z" fill="#00706e" stroke="#00706e"></path><path d="M496 395.7L506 308.9L468 363.9Z" fill="#005445" stroke="#005445"></path><path d="M468 363.9L497 294.1L425 332.9Z" fill="#00c1ff" stroke="#00c1ff"></path><path d="M425 332.9L462 248.1L396 316.9Z" fill="#007e83" stroke="#007e83"></path><path d="M506 308.9L497 294.1L468 363.9Z" fill="#006259" stroke="#006259"></path><path d="M396 434.6L438 456.4L394 412.6Z" fill="#00c1ff" stroke="#00c1ff"></path><path d="M478 410.6L499 439.6L496 395.7Z" fill="#006259" stroke="#006259"></path><path d="M350 315L339 418.7L412 372.7Z" fill="#005445" stroke="#005445"></path><path d="M396 434.6L427 502.4L438 456.4Z" fill="#00c1ff" stroke="#00c1ff"></path><path d="M529 292L480 263L497 294.1Z" fill="#005445" stroke="#005445"></path><path d="M497 294.1L480 263L425 332.9Z" fill="#00706e" stroke="#00706e"></path><path d="M386 307.9L324 278L350 315Z" fill="#009ab2" stroke="#009ab2"></path><path d="M458 465.4L499 439.6L478 410.6Z" fill="#005445" stroke="#005445"></path><path d="M496 395.7L533 307L506 308.9Z" fill="#00c1ff" stroke="#00c1ff"></path><path d="M480 263L462 248.1L425 332.9Z" fill="#006259" stroke="#006259"></path><path d="M427 502.4L458 465.4L438 456.4Z" fill="#00c1ff" stroke="#00c1ff"></path><path d="M438 456.4L458 465.4L478 410.6Z" fill="#005445" stroke="#005445"></path><path d="M560 406.7L533 307L496 395.7Z" fill="#007e83" stroke="#007e83"></path><path d="M506 308.9L529 292L497 294.1Z" fill="#009ab2" stroke="#009ab2"></path><path d="M533 307L529 292L506 308.9Z" fill="#006259" stroke="#006259"></path><path d="M480 263L514 225.3L462 248.1Z" fill="#00706e" stroke="#00706e"></path><path d="M509 485.3L515 440.6L499 439.6Z" fill="#008c9a" stroke="#008c9a"></path><path d="M499 439.6L515 440.6L496 395.7Z" fill="#00a7cb" stroke="#00a7cb"></path><path d="M348 239.3L324 278L386 307.9Z" fill="#009ab2" stroke="#009ab2"></path><path d="M350 315L292 343.9L339 418.7Z" fill="#007e83" stroke="#007e83"></path><path d="M324 278L296 335L350 315Z" fill="#004632" stroke="#004632"></path><path d="M296 335L292 343.9L350 315Z" fill="#00b4e5" stroke="#00b4e5"></path><path d="M515 440.6L535 431.4L496 395.7Z" fill="#008c9a" stroke="#008c9a"></path><path d="M303 454.6L351 470.4L339 418.7Z" fill="#007e83" stroke="#007e83"></path><path d="M339 418.7L351 470.4L396 434.6Z" fill="#004632" stroke="#004632"></path><path d="M375 224.1L348 239.3L386 307.9Z" fill="#005445" stroke="#005445"></path><path d="M292 343.9L286 365.7L339 418.7Z" fill="#00b4e5" stroke="#00b4e5"></path><path d="M462 248.1L375 224.1L386 307.9Z" fill="#00706e" stroke="#00706e"></path><path d="M375 224.1L351 235.1L348 239.3Z" fill="#008c9a" stroke="#008c9a"></path><path d="M535 431.4L560 406.7L496 395.7Z" fill="#005445" stroke="#005445"></path><path d="M593 299L532 240.1L529 292Z" fill="#00c1ff" stroke="#00c1ff"></path><path d="M478 199.3L422 207.3L462 248.1Z" fill="#003920" stroke="#003920"></path><path d="M462 248.1L422 207.3L375 224.1Z" fill="#008c9a" stroke="#008c9a"></path><path d="M396 515.3L427 502.4L396 434.6Z" fill="#00a7cb" stroke="#00a7cb"></path><path d="M458 465.4L509 485.3L499 439.6Z" fill="#00c1ff" stroke="#00c1ff"></path><path d="M515 440.6L557 436.4L535 431.4Z" fill="#008c9a" stroke="#008c9a"></path><path d="M387 175.3L360 219.3L375 224.1Z" fill="#008c9a" stroke="#008c9a"></path><path d="M375 224.1L360 219.3L351 235.1Z" fill="#003920" stroke="#003920"></path><path d="M351 235.1L324 240.1L348 239.3Z" fill="#003920" stroke="#003920"></path><path d="M348 239.3L324 240.1L324 278Z" fill="#004632" stroke="#004632"></path><path d="M427 502.4L469 498.3L458 465.4Z" fill="#004632" stroke="#004632"></path><path d="M535 431.4L557 436.4L560 406.7Z" fill="#003920" stroke="#003920"></path><path d="M278 405.7L293 431.4L339 418.7Z" fill="#00706e" stroke="#00706e"></path><path d="M360 219.3L324 240.1L351 235.1Z" fill="#00b4e5" stroke="#00b4e5"></path><path d="M258 286.1L253 328.9L296 335Z" fill="#008c9a" stroke="#008c9a"></path><path d="M296 335L253 328.9L292 343.9Z" fill="#007e83" stroke="#007e83"></path><path d="M303 454.6L338 481.4L351 470.4Z" fill="#007e83" stroke="#007e83"></path><path d="M351 470.4L396 515.3L396 434.6Z" fill="#003920" stroke="#003920"></path><path d="M286 365.7L278 405.7L339 418.7Z" fill="#007e83" stroke="#007e83"></path><path d="M469 498.3L509 485.3L458 465.4Z" fill="#00c1ff" stroke="#00c1ff"></path><path d="M509 485.3L557 436.4L515 440.6Z" fill="#006259" stroke="#006259"></path><path d="M557 436.4L569 415.7L560 406.7Z" fill="#00c1ff" stroke="#00c1ff"></path><path d="M560 406.7L597 365.9L533 307Z" fill="#005445" stroke="#005445"></path><path d="M593 299L529 292L533 307Z" fill="#006259" stroke="#006259"></path><path d="M529 292L532 240.1L480 263Z" fill="#00c1ff" stroke="#00c1ff"></path><path d="M293 431.4L303 454.6L339 418.7Z" fill="#005445" stroke="#005445"></path><path d="M273 460.6L303 454.6L293 431.4Z" fill="#003920" stroke="#003920"></path><path d="M532 240.1L514 225.3L480 263Z" fill="#00b4e5" stroke="#00b4e5"></path><path d="M361 517.3L396 515.3L351 470.4Z" fill="#00c1ff" stroke="#00c1ff"></path><path d="M427 502.4L443 552.3L469 498.3Z" fill="#00c1ff" stroke="#00c1ff"></path><path d="M514 225.3L478 199.3L462 248.1Z" fill="#003920" stroke="#003920"></path><path d="M361 517.3L396 517.1L396 515.3Z" fill="#00b4e5" stroke="#00b4e5"></path><path d="M396 515.3L396 517.1L427 502.4Z" fill="#00706e" stroke="#00706e"></path><path d="M590 413.6L597 365.9L560 406.7Z" fill="#00c1ff" stroke="#00c1ff"></path><path d="M258 286.1L296 335L324 278Z" fill="#008c9a" stroke="#008c9a"></path><path d="M292 343.9L253 328.9L286 365.7Z" fill="#00c1ff" stroke="#00c1ff"></path><path d="M286 365.7L234 363.9L278 405.7Z" fill="#008c9a" stroke="#008c9a"></path><path d="M565 203.4L503 199.4L514 225.3Z" fill="#004632" stroke="#004632"></path><path d="M514 225.3L503 199.4L478 199.3Z" fill="#004632" stroke="#004632"></path><path d="M338 481.4L361 517.3L351 470.4Z" fill="#00b4e5" stroke="#00b4e5"></path><path d="M312 536.3L361 517.3L338 481.4Z" fill="#006259" stroke="#006259"></path><path d="M590 458.6L590 413.6L569 415.7Z" fill="#007e83" stroke="#007e83"></path><path d="M569 415.7L590 413.6L560 406.7Z" fill="#006259" stroke="#006259"></path><path d="M590 458.6L569 415.7L557 436.4Z" fill="#008c9a" stroke="#008c9a"></path><path d="M604 334.9L593 299L533 307Z" fill="#009ab2" stroke="#009ab2"></path><path d="M532 240.1L565 203.4L514 225.3Z" fill="#009ab2" stroke="#009ab2"></path><path d="M324 240.1L258 286.1L324 278Z" fill="#005445" stroke="#005445"></path><path d="M611 388.7L604 334.9L597 365.9Z" fill="#009ab2" stroke="#009ab2"></path><path d="M597 365.9L604 334.9L533 307Z" fill="#005445" stroke="#005445"></path><path d="M422 207.3L387 175.3L375 224.1Z" fill="#00706e" stroke="#00706e"></path><path d="M360 219.3L332 184.4L324 240.1Z" fill="#00b4e5" stroke="#00b4e5"></path><path d="M242 266L249 288.1L258 286.1Z" fill="#004632" stroke="#004632"></path><path d="M418 160.4L387 175.3L422 207.3Z" fill="#00706e" stroke="#00706e"></path><path d="M477 167.6L422 207.3L478 199.3Z" fill="#008c9a" stroke="#008c9a"></path><path d="M239 435.4L293 431.4L278 405.7Z" fill="#008c9a" stroke="#008c9a"></path><path d="M239 435.4L273 460.6L293 431.4Z" fill="#00706e" stroke="#00706e"></path><path d="M303 454.6L269 496.3L338 481.4Z" fill="#00706e" stroke="#00706e"></path><path d="M361 517.3L413 541.1L396 517.1Z" fill="#004632" stroke="#004632"></path><path d="M396 517.1L413 541.1L427 502.4Z" fill="#007e83" stroke="#007e83"></path><path d="M469 498.3L521 528.1L509 485.3Z" fill="#00a7cb" stroke="#00a7cb"></path><path d="M242 266L258 286.1L272 211.3Z" fill="#003920" stroke="#003920"></path><path d="M258 286.1L249 288.1L253 328.9Z" fill="#00b4e5" stroke="#00b4e5"></path><path d="M590 413.6L611 388.7L597 365.9Z" fill="#004632" stroke="#004632"></path><path d="M225 356.7L234 363.9L253 328.9Z" fill="#004632" stroke="#004632"></path><path d="M253 328.9L234 363.9L286 365.7Z" fill="#007e83" stroke="#007e83"></path><path d="M387 175.3L332 184.4L360 219.3Z" fill="#00706e" stroke="#00706e"></path><path d="M482 132.6L477 167.6L539 146.6Z" fill="#009ab2" stroke="#009ab2"></path><path d="M503 199.4L477 167.6L478 199.3Z" fill="#00a7cb" stroke="#00a7cb"></path><path d="M477 167.6L418 160.4L422 207.3Z" fill="#003920" stroke="#003920"></path><path d="M387 175.3L323 170.4L332 184.4Z" fill="#008c9a" stroke="#008c9a"></path><path d="M509 485.3L590 458.6L557 436.4Z" fill="#008c9a" stroke="#008c9a"></path><path d="M680 458.4L680 401.6L611 388.7Z" fill="#005445" stroke="#005445"></path><path d="M521 528.1L590 458.6L509 485.3Z" fill="#00706e" stroke="#00706e"></path><path d="M604 334.9L610 289.1L593 299Z" fill="#005445" stroke="#005445"></path><path d="M593 299L593 214.3L532 240.1Z" fill="#004632" stroke="#004632"></path><path d="M635 294L610 289.1L604 334.9Z" fill="#004632" stroke="#004632"></path><path d="M413 541.1L443 552.3L427 502.4Z" fill="#005445" stroke="#005445"></path><path d="M478 547.1L521 528.1L469 498.3Z" fill="#00c1ff" stroke="#00c1ff"></path><path d="M215 354.7L225 356.7L208 348.9Z" fill="#00a7cb" stroke="#00a7cb"></path><path d="M234 363.9L239 435.4L278 405.7Z" fill="#009ab2" stroke="#009ab2"></path><path d="M443 552.3L478 547.1L469 498.3Z" fill="#008c9a" stroke="#008c9a"></path><path d="M205 391.6L239 435.4L234 363.9Z" fill="#008c9a" stroke="#008c9a"></path><path d="M272 211.3L258 286.1L324 240.1Z" fill="#00706e" stroke="#00706e"></path><path d="M208 348.9L225 356.7L253 328.9Z" fill="#00a7cb" stroke="#00a7cb"></path><path d="M593 214.3L565 203.4L532 240.1Z" fill="#00a7cb" stroke="#00a7cb"></path><path d="M332 184.4L272 211.3L324 240.1Z" fill="#00b4e5" stroke="#00b4e5"></path><path d="M208 348.9L253 328.9L249 288.1Z" fill="#005445" stroke="#005445"></path><path d="M225 356.7L205 391.6L234 363.9Z" fill="#004632" stroke="#004632"></path><path d="M239 435.4L269 496.3L273 460.6Z" fill="#00c1ff" stroke="#00c1ff"></path><path d="M273 460.6L269 496.3L303 454.6Z" fill="#00a7cb" stroke="#00a7cb"></path><path d="M382 600L422 600L413 541.1Z" fill="#00c1ff" stroke="#00c1ff"></path><path d="M413 541.1L422 600L443 552.3Z" fill="#009ab2" stroke="#009ab2"></path><path d="M305 133.6L323 170.4L340 95.6Z" fill="#00c1ff" stroke="#00c1ff"></path><path d="M332 184.4L323 170.4L272 211.3Z" fill="#00706e" stroke="#00706e"></path><path d="M269 496.3L312 536.3L338 481.4Z" fill="#005445" stroke="#005445"></path><path d="M170 288L208 348.9L249 288.1Z" fill="#00c1ff" stroke="#00c1ff"></path><path d="M215 354.7L205 391.6L225 356.7Z" fill="#007e83" stroke="#007e83"></path><path d="M695 346.7L635 294L604 334.9Z" fill="#004632" stroke="#004632"></path><path d="M610 289.1L593 214.3L593 299Z" fill="#00c1ff" stroke="#00c1ff"></path><path d="M638 249.3L593 214.3L610 289.1Z" fill="#008c9a" stroke="#008c9a"></path><path d="M482 132.6L431 135.4L477 167.6Z" fill="#005445" stroke="#005445"></path><path d="M477 167.6L431 135.4L418 160.4Z" fill="#007e83" stroke="#007e83"></path><path d="M418 160.4L404 88.6L387 175.3Z" fill="#007e83" stroke="#007e83"></path><path d="M477 167.6L503 199.4L539 146.6Z" fill="#00b4e5" stroke="#00b4e5"></path><path d="M208 348.9L205 391.6L215 354.7Z" fill="#004632" stroke="#004632"></path><path d="M239 435.4L250 515.3L269 496.3Z" fill="#004632" stroke="#004632"></path><path d="M243 135.4L252 205.4L272 211.3Z" fill="#00c1ff" stroke="#00c1ff"></path><path d="M272 211.3L252 205.4L242 266Z" fill="#006259" stroke="#006259"></path><path d="M242 266L170 288L249 288.1Z" fill="#005445" stroke="#005445"></path><path d="M562 167.6L503 199.4L565 203.4Z" fill="#00a7cb" stroke="#00a7cb"></path><path d="M593 214.3L562 167.6L565 203.4Z" fill="#008c9a" stroke="#008c9a"></path><path d="M252 205.4L218 247.1L242 266Z" fill="#007e83" stroke="#007e83"></path><path d="M204 518.3L250 515.3L239 435.4Z" fill="#00b4e5" stroke="#00b4e5"></path><path d="M269 496.3L250 515.3L312 536.3Z" fill="#003920" stroke="#003920"></path><path d="M562 167.6L552 154.4L503 199.4Z" fill="#00c1ff" stroke="#00c1ff"></path><path d="M552 154.4L539 146.6L503 199.4Z" fill="#00706e" stroke="#00706e"></path><path d="M635 294L638 249.3L610 289.1Z" fill="#005445" stroke="#005445"></path><path d="M593 214.3L598 141.6L562 167.6Z" fill="#003920" stroke="#003920"></path><path d="M562 167.6L598 141.6L552 154.4Z" fill="#00706e" stroke="#00706e"></path><path d="M610 532.3L627 485.3L590 458.6Z" fill="#00706e" stroke="#00706e"></path><path d="M590 458.6L654 480.4L590 413.6Z" fill="#00c1ff" stroke="#00c1ff"></path><path d="M611 388.7L665 386.7L604 334.9Z" fill="#00b4e5" stroke="#00b4e5"></path><path d="M635 294L669 267.1L638 249.3Z" fill="#00c1ff" stroke="#00c1ff"></path><path d="M610 532.3L590 458.6L521 528.1Z" fill="#007e83" stroke="#007e83"></path><path d="M164 359.9L187 399.6L205 391.6Z" fill="#003920" stroke="#003920"></path><path d="M205 391.6L187 399.6L239 435.4Z" fill="#004632" stroke="#004632"></path><path d="M164 359.9L205 391.6L208 348.9Z" fill="#005445" stroke="#005445"></path><path d="M680 401.6L665 386.7L611 388.7Z" fill="#005445" stroke="#005445"></path><path d="M382 600L413 541.1L361 517.3Z" fill="#004632" stroke="#004632"></path><path d="M443 552.3L487 592.1L478 547.1Z" fill="#00706e" stroke="#00706e"></path><path d="M478 547.1L509 600L521 528.1Z" fill="#007e83" stroke="#007e83"></path><path d="M382 600L361 517.3L312 536.3Z" fill="#006259" stroke="#006259"></path><path d="M442 600L487 592.1L443 552.3Z" fill="#007e83" stroke="#007e83"></path><path d="M422 600L442 600L443 552.3Z" fill="#008c9a" stroke="#008c9a"></path><path d="M308 600L382 600L312 536.3Z" fill="#004632" stroke="#004632"></path><path d="M252 205.4L208 227.3L218 247.1Z" fill="#005445" stroke="#005445"></path><path d="M170 288L164 359.9L208 348.9Z" fill="#006259" stroke="#006259"></path><path d="M323 170.4L305 133.6L272 211.3Z" fill="#005445" stroke="#005445"></path><path d="M173 213.3L174 226.3L208 227.3Z" fill="#004632" stroke="#004632"></path><path d="M340 95.6L323 170.4L387 175.3Z" fill="#004632" stroke="#004632"></path><path d="M404 88.6L418 160.4L431 135.4Z" fill="#004632" stroke="#004632"></path><path d="M442 600L495 600L487 592.1Z" fill="#004632" stroke="#004632"></path><path d="M487 592.1L509 600L478 547.1Z" fill="#00a7cb" stroke="#00a7cb"></path><path d="M602 558.1L610 532.3L521 528.1Z" fill="#003920" stroke="#003920"></path><path d="M680 458.4L611 388.7L590 413.6Z" fill="#009ab2" stroke="#009ab2"></path><path d="M495 600L509 600L487 592.1Z" fill="#00c1ff" stroke="#00c1ff"></path><path d="M675 279L669 267.1L635 294Z" fill="#006259" stroke="#006259"></path><path d="M638 249.3L635 180.4L593 214.3Z" fill="#007e83" stroke="#007e83"></path><path d="M654 480.4L590 458.6L627 485.3Z" fill="#00a7cb" stroke="#00a7cb"></path><path d="M699 323.9L675 279L635 294Z" fill="#008c9a" stroke="#008c9a"></path><path d="M253 569.1L279 570.1L250 515.3Z" fill="#00a7cb" stroke="#00a7cb"></path><path d="M250 515.3L279 570.1L312 536.3Z" fill="#005445" stroke="#005445"></path><path d="M170 288L242 266L218 247.1Z" fill="#00b4e5" stroke="#00b4e5"></path><path d="M187 399.6L204 518.3L239 435.4Z" fill="#003920" stroke="#003920"></path><path d="M685 510.3L654 480.4L627 485.3Z" fill="#00706e" stroke="#00706e"></path><path d="M695 346.7L604 334.9L665 386.7Z" fill="#00a7cb" stroke="#00a7cb"></path><path d="M174 226.3L170 288L218 247.1Z" fill="#009ab2" stroke="#009ab2"></path><path d="M707 267L669 253.1L669 267.1Z" fill="#007e83" stroke="#007e83"></path><path d="M669 267.1L669 253.1L638 249.3Z" fill="#006259" stroke="#006259"></path><path d="M438 63.7L431 135.4L482 132.6Z" fill="#004632" stroke="#004632"></path><path d="M438 63.7L404 88.6L431 135.4Z" fill="#008c9a" stroke="#008c9a"></path><path d="M573 600L602 558.1L521 528.1Z" fill="#00b4e5" stroke="#00b4e5"></path><path d="M610 532.3L685 510.3L627 485.3Z" fill="#00a7cb" stroke="#00a7cb"></path><path d="M680 401.6L695 346.7L665 386.7Z" fill="#00a7cb" stroke="#00a7cb"></path><path d="M675 279L707 267L669 267.1Z" fill="#00b4e5" stroke="#00b4e5"></path><path d="M279 570.1L308 600L312 536.3Z" fill="#008c9a" stroke="#008c9a"></path><path d="M561 61.7L513 97.7L539 146.6Z" fill="#007e83" stroke="#007e83"></path><path d="M539 146.6L513 97.7L482 132.6Z" fill="#006259" stroke="#006259"></path><path d="M598 141.6L539 146.6L552 154.4Z" fill="#00c1ff" stroke="#00c1ff"></path><path d="M341 94.6L340 95.6L387 175.3Z" fill="#00c1ff" stroke="#00c1ff"></path><path d="M243 135.4L208 227.3L252 205.4Z" fill="#005445" stroke="#005445"></path><path d="M404 88.6L341 94.6L387 175.3Z" fill="#00706e" stroke="#00706e"></path><path d="M243 135.4L272 211.3L305 133.6Z" fill="#00706e" stroke="#00706e"></path><path d="M688 197.3L635 180.4L638 249.3Z" fill="#007e83" stroke="#007e83"></path><path d="M143 508.4L204 518.3L187 399.6Z" fill="#00c1ff" stroke="#00c1ff"></path><path d="M279 570.1L238 600L308 600Z" fill="#005445" stroke="#005445"></path><path d="M216 539.1L253 569.1L250 515.3Z" fill="#003920" stroke="#003920"></path><path d="M635 180.4L598 141.6L593 214.3Z" fill="#00a7cb" stroke="#00a7cb"></path><path d="M685 510.3L680 458.4L654 480.4Z" fill="#00706e" stroke="#00706e"></path><path d="M654 480.4L680 458.4L590 413.6Z" fill="#005445" stroke="#005445"></path><path d="M753 375.9L739 346.7L695 346.7Z" fill="#004632" stroke="#004632"></path><path d="M739 346.7L699 323.9L695 346.7Z" fill="#00706e" stroke="#00706e"></path><path d="M695 346.7L699 323.9L635 294Z" fill="#006259" stroke="#006259"></path><path d="M204 518.3L216 539.1L250 515.3Z" fill="#00706e" stroke="#00706e"></path><path d="M92 366.9L146 389.6L164 359.9Z" fill="#008c9a" stroke="#008c9a"></path><path d="M164 359.9L146 389.6L187 399.6Z" fill="#008c9a" stroke="#008c9a"></path><path d="M243 135.4L305 133.6L241 131.6Z" fill="#007e83" stroke="#007e83"></path><path d="M208 227.3L174 226.3L218 247.1Z" fill="#00706e" stroke="#00706e"></path><path d="M170 288L141 308L164 359.9Z" fill="#003920" stroke="#003920"></path><path d="M241 131.6L305 133.6L284 73.9Z" fill="#00b4e5" stroke="#00b4e5"></path><path d="M509 600L573 600L521 528.1Z" fill="#003920" stroke="#003920"></path><path d="M602 558.1L616 579.1L610 532.3Z" fill="#009ab2" stroke="#009ab2"></path><path d="M117 300L141 308L170 288Z" fill="#003920" stroke="#003920"></path><path d="M243 135.4L173 213.3L208 227.3Z" fill="#00706e" stroke="#00706e"></path><path d="M103 245.1L117 300L170 288Z" fill="#009ab2" stroke="#009ab2"></path><path d="M284 73.9L305 133.6L340 95.6Z" fill="#004632" stroke="#004632"></path><path d="M243 135.4L155 185.4L173 213.3Z" fill="#00b4e5" stroke="#00b4e5"></path><path d="M486 56.7L438 63.7L482 132.6Z" fill="#00c1ff" stroke="#00c1ff"></path><path d="M404 88.6L350 56.7L341 94.6Z" fill="#00c1ff" stroke="#00c1ff"></path><path d="M573 600L616 579.1L602 558.1Z" fill="#00c1ff" stroke="#00c1ff"></path><path d="M699 323.9L707 267L675 279Z" fill="#00c1ff" stroke="#00c1ff"></path><path d="M669 253.1L688 197.3L638 249.3Z" fill="#008c9a" stroke="#008c9a"></path><path d="M204 518.3L190 547.1L216 539.1Z" fill="#007e83" stroke="#007e83"></path><path d="M223 600L238 600L253 569.1Z" fill="#00706e" stroke="#00706e"></path><path d="M253 569.1L238 600L279 570.1Z" fill="#008c9a" stroke="#008c9a"></path><path d="M143 508.4L190 547.1L204 518.3Z" fill="#003920" stroke="#003920"></path><path d="M678 545.3L685 510.3L610 532.3Z" fill="#008c9a" stroke="#008c9a"></path><path d="M680 458.4L718 446.6L680 401.6Z" fill="#006259" stroke="#006259"></path><path d="M699 323.9L754 282.1L707 267Z" fill="#009ab2" stroke="#009ab2"></path><path d="M561 61.7L486 56.7L513 97.7Z" fill="#003920" stroke="#003920"></path><path d="M513 97.7L486 56.7L482 132.6Z" fill="#005445" stroke="#005445"></path><path d="M711 207.4L688 197.3L669 253.1Z" fill="#00b4e5" stroke="#00b4e5"></path><path d="M635 180.4L653 112.7L598 141.6Z" fill="#004632" stroke="#004632"></path><path d="M598 141.6L561 61.7L539 146.6Z" fill="#00706e" stroke="#00706e"></path><path d="M365 4.9L350 56.7L389 0Z" fill="#00b4e5" stroke="#00b4e5"></path><path d="M324 52.7L284 73.9L340 95.6Z" fill="#005445" stroke="#005445"></path><path d="M344 9.9L350 56.7L365 4.9Z" fill="#008c9a" stroke="#008c9a"></path><path d="M711 469.4L718 446.6L680 458.4Z" fill="#00a7cb" stroke="#00a7cb"></path><path d="M223 600L253 569.1L216 539.1Z" fill="#004632" stroke="#004632"></path><path d="M685 510.3L711 469.4L680 458.4Z" fill="#003920" stroke="#003920"></path><path d="M486 56.7L459 47.9L438 63.7Z" fill="#004632" stroke="#004632"></path><path d="M92 366.9L117 408.7L146 389.6Z" fill="#009ab2" stroke="#009ab2"></path><path d="M146 389.6L111 446.4L187 399.6Z" fill="#007e83" stroke="#007e83"></path><path d="M103 245.1L170 288L174 226.3Z" fill="#007e83" stroke="#007e83"></path><path d="M141 308L92 366.9L164 359.9Z" fill="#003920" stroke="#003920"></path><path d="M324 52.7L340 95.6L341 94.6Z" fill="#006259" stroke="#006259"></path><path d="M241 131.6L155 185.4L243 135.4Z" fill="#006259" stroke="#006259"></path><path d="M753 375.9L695 346.7L680 401.6Z" fill="#00b4e5" stroke="#00b4e5"></path><path d="M707 267L711 207.4L669 253.1Z" fill="#00b4e5" stroke="#00b4e5"></path><path d="M616 579.1L678 545.3L610 532.3Z" fill="#005445" stroke="#005445"></path><path d="M685 510.3L728 541.1L711 469.4Z" fill="#008c9a" stroke="#008c9a"></path><path d="M190 547.1L223 600L216 539.1Z" fill="#003920" stroke="#003920"></path><path d="M142 159.6L155 185.4L241 131.6Z" fill="#003920" stroke="#003920"></path><path d="M173 213.3L103 245.1L174 226.3Z" fill="#00a7cb" stroke="#00a7cb"></path><path d="M344 9.9L324 52.7L350 56.7Z" fill="#00b4e5" stroke="#00b4e5"></path><path d="M350 56.7L324 52.7L341 94.6Z" fill="#005445" stroke="#005445"></path><path d="M111 446.4L143 508.4L187 399.6Z" fill="#009ab2" stroke="#009ab2"></path><path d="M190 547.1L178 600L223 600Z" fill="#005445" stroke="#005445"></path><path d="M281 30.9L269 72.7L284 73.9Z" fill="#006259" stroke="#006259"></path><path d="M284 73.9L269 72.7L241 131.6Z" fill="#00706e" stroke="#00706e"></path><path d="M736 247.1L711 207.4L707 267Z" fill="#00b4e5" stroke="#00b4e5"></path><path d="M577 55.7L561 61.7L615 68.9Z" fill="#007e83" stroke="#007e83"></path><path d="M653 112.7L635 180.4L692 149.4Z" fill="#004632" stroke="#004632"></path><path d="M486 56.7L481 14.9L459 47.9Z" fill="#003920" stroke="#003920"></path><path d="M117 408.7L111 446.4L146 389.6Z" fill="#009ab2" stroke="#009ab2"></path><path d="M69 421.7L111 446.4L117 408.7Z" fill="#004632" stroke="#004632"></path><path d="M744 440.4L718 446.6L711 469.4Z" fill="#007e83" stroke="#007e83"></path><path d="M744 440.4L680 401.6L718 446.6Z" fill="#00b4e5" stroke="#00b4e5"></path><path d="M744 440.4L753 375.9L680 401.6Z" fill="#006259" stroke="#006259"></path><path d="M754 282.1L736 247.1L707 267Z" fill="#009ab2" stroke="#009ab2"></path><path d="M776 210.3L708 187.3L711 207.4Z" fill="#00b4e5" stroke="#00b4e5"></path><path d="M711 207.4L708 187.3L688 197.3Z" fill="#005445" stroke="#005445"></path><path d="M754 282.1L699 323.9L739 346.7Z" fill="#00706e" stroke="#00706e"></path><path d="M753 375.9L755 344.9L739 346.7Z" fill="#006259" stroke="#006259"></path><path d="M788 453.6L744 440.4L782 491.3Z" fill="#00a7cb" stroke="#00a7cb"></path><path d="M81 333.9L141 308L117 300Z" fill="#00b4e5" stroke="#00b4e5"></path><path d="M81 333.9L92 366.9L141 308Z" fill="#007e83" stroke="#007e83"></path><path d="M692 149.4L635 180.4L688 197.3Z" fill="#00a7cb" stroke="#00a7cb"></path><path d="M573 600L650 600L616 579.1Z" fill="#008c9a" stroke="#008c9a"></path><path d="M616 579.1L650 600L678 545.3Z" fill="#00a7cb" stroke="#00a7cb"></path><path d="M678 545.3L710 551.1L685 510.3Z" fill="#008c9a" stroke="#008c9a"></path><path d="M615 68.9L561 61.7L598 141.6Z" fill="#00c1ff" stroke="#00c1ff"></path><path d="M533 0L481 14.9L486 56.7Z" fill="#004632" stroke="#004632"></path><path d="M703 152.6L692 149.4L708 187.3Z" fill="#004632" stroke="#004632"></path><path d="M708 187.3L692 149.4L688 197.3Z" fill="#00c1ff" stroke="#00c1ff"></path><path d="M755 344.9L754 282.1L739 346.7Z" fill="#005445" stroke="#005445"></path><path d="M783 152.4L703 152.6L708 187.3Z" fill="#003920" stroke="#003920"></path><path d="M119 520.3L124 509.4L84 523.3Z" fill="#00a7cb" stroke="#00a7cb"></path><path d="M111 446.4L124 509.4L143 508.4Z" fill="#006259" stroke="#006259"></path><path d="M143 508.4L158 571.1L190 547.1Z" fill="#003920" stroke="#003920"></path><path d="M155 185.4L103 245.1L173 213.3Z" fill="#00c1ff" stroke="#00c1ff"></path><path d="M650 600L662 600L678 545.3Z" fill="#006259" stroke="#006259"></path><path d="M119 520.3L158 571.1L143 508.4Z" fill="#00c1ff" stroke="#00c1ff"></path><path d="M172 91.7L142 159.6L241 131.6Z" fill="#00706e" stroke="#00706e"></path><path d="M155 185.4L92 183.4L103 245.1Z" fill="#00c1ff" stroke="#00c1ff"></path><path d="M629 53.7L615 68.9L643 57.9Z" fill="#00c1ff" stroke="#00c1ff"></path><path d="M653 112.7L615 68.9L598 141.6Z" fill="#00a7cb" stroke="#00a7cb"></path><path d="M753 235.3L711 207.4L736 247.1Z" fill="#00c1ff" stroke="#00c1ff"></path><path d="M692 149.4L675 94.6L653 112.7Z" fill="#00b4e5" stroke="#00b4e5"></path><path d="M38 317L81 333.9L117 300Z" fill="#005445" stroke="#005445"></path><path d="M84 523.3L124 509.4L69 491.3Z" fill="#004632" stroke="#004632"></path><path d="M552 22.9L561 61.7L577 55.7Z" fill="#003920" stroke="#003920"></path><path d="M552 22.9L486 56.7L561 61.7Z" fill="#00c1ff" stroke="#00c1ff"></path><path d="M350 56.7L404 88.6L389 0Z" fill="#004632" stroke="#004632"></path><path d="M281 30.9L223 73.7L269 72.7Z" fill="#007e83" stroke="#007e83"></path><path d="M269 72.7L223 73.7L241 131.6Z" fill="#006259" stroke="#006259"></path><path d="M281 30.9L284 73.9L324 52.7Z" fill="#004632" stroke="#004632"></path><path d="M662 600L710 551.1L678 545.3Z" fill="#009ab2" stroke="#009ab2"></path><path d="M69 421.7L117 408.7L62 393.6Z" fill="#00a7cb" stroke="#00a7cb"></path><path d="M124 509.4L119 520.3L143 508.4Z" fill="#00c1ff" stroke="#00c1ff"></path><path d="M95 600L178 600L158 571.1Z" fill="#00b4e5" stroke="#00b4e5"></path><path d="M158 571.1L178 600L190 547.1Z" fill="#00706e" stroke="#00706e"></path><path d="M776 270L753 235.3L736 247.1Z" fill="#006259" stroke="#006259"></path><path d="M404 88.6L438 63.7L389 0Z" fill="#008c9a" stroke="#008c9a"></path><path d="M309 0L281 30.9L324 52.7Z" fill="#009ab2" stroke="#009ab2"></path><path d="M442 0L438 63.7L459 47.9Z" fill="#009ab2" stroke="#009ab2"></path><path d="M452 0L442 0L459 47.9Z" fill="#00c1ff" stroke="#00c1ff"></path><path d="M629 0L552 22.9L577 55.7Z" fill="#007e83" stroke="#007e83"></path><path d="M481 14.9L452 0L459 47.9Z" fill="#00c1ff" stroke="#00c1ff"></path><path d="M470 0L452 0L481 14.9Z" fill="#00b4e5" stroke="#00b4e5"></path><path d="M747 576.1L728 541.1L710 551.1Z" fill="#00706e" stroke="#00706e"></path><path d="M710 551.1L728 541.1L685 510.3Z" fill="#007e83" stroke="#007e83"></path><path d="M442 0L389 0L438 63.7Z" fill="#009ab2" stroke="#009ab2"></path><path d="M533 0L470 0L481 14.9Z" fill="#007e83" stroke="#007e83"></path><path d="M703 88.7L675 94.6L692 149.4Z" fill="#004632" stroke="#004632"></path><path d="M615 68.9L629 53.7L577 55.7Z" fill="#00a7cb" stroke="#00a7cb"></path><path d="M703 88.7L692 149.4L703 152.6Z" fill="#00706e" stroke="#00706e"></path><path d="M799 304L776 270L754 282.1Z" fill="#008c9a" stroke="#008c9a"></path><path d="M754 282.1L776 270L736 247.1Z" fill="#00a7cb" stroke="#00a7cb"></path><path d="M753 235.3L776 210.3L711 207.4Z" fill="#009ab2" stroke="#009ab2"></path><path d="M799 304L754 282.1L755 344.9Z" fill="#008c9a" stroke="#008c9a"></path><path d="M801 347.9L755 344.9L753 375.9Z" fill="#00c1ff" stroke="#00c1ff"></path><path d="M797 401.7L753 375.9L744 440.4Z" fill="#003920" stroke="#003920"></path><path d="M62 393.6L117 408.7L92 366.9Z" fill="#00706e" stroke="#00706e"></path><path d="M142 159.6L117 162.4L155 185.4Z" fill="#005445" stroke="#005445"></path><path d="M103 245.1L38 317L117 300Z" fill="#00c1ff" stroke="#00c1ff"></path><path d="M101 157.6L117 162.4L124 110.6Z" fill="#00706e" stroke="#00706e"></path><path d="M643 57.9L615 68.9L653 112.7Z" fill="#009ab2" stroke="#009ab2"></path><path d="M81 333.9L62 393.6L92 366.9Z" fill="#007e83" stroke="#007e83"></path><path d="M38 317L62 393.6L81 333.9Z" fill="#00c1ff" stroke="#00c1ff"></path><path d="M198 64.7L172 91.7L223 73.7Z" fill="#003920" stroke="#003920"></path><path d="M223 73.7L172 91.7L241 131.6Z" fill="#006259" stroke="#006259"></path><path d="M191 51.9L198 64.7L223 73.7Z" fill="#007e83" stroke="#007e83"></path><path d="M675 94.6L643 57.9L653 112.7Z" fill="#005445" stroke="#005445"></path><path d="M547 0L533 0L552 22.9Z" fill="#005445" stroke="#005445"></path><path d="M344 9.9L321 0L324 52.7Z" fill="#008c9a" stroke="#008c9a"></path><path d="M190 10.9L191 51.9L205 0Z" fill="#006259" stroke="#006259"></path><path d="M365 4.9L321 0L344 9.9Z" fill="#003920" stroke="#003920"></path><path d="M389 0L321 0L365 4.9Z" fill="#006259" stroke="#006259"></path><path d="M547 0L552 22.9L629 0Z" fill="#009ab2" stroke="#009ab2"></path><path d="M552 22.9L533 0L486 56.7Z" fill="#009ab2" stroke="#009ab2"></path><path d="M788 453.6L787 442.4L744 440.4Z" fill="#00c1ff" stroke="#00c1ff"></path><path d="M321 0L309 0L324 52.7Z" fill="#004632" stroke="#004632"></path><path d="M92 183.4L74 226.3L103 245.1Z" fill="#008c9a" stroke="#008c9a"></path><path d="M91 177.3L92 183.4L117 162.4Z" fill="#007e83" stroke="#007e83"></path><path d="M117 162.4L92 183.4L155 185.4Z" fill="#008c9a" stroke="#008c9a"></path><path d="M629 0L577 55.7L629 53.7Z" fill="#003920" stroke="#003920"></path><path d="M795 426.6L797 401.7L744 440.4Z" fill="#003920" stroke="#003920"></path><path d="M797 401.7L801 347.9L753 375.9Z" fill="#004632" stroke="#004632"></path><path d="M787 442.4L795 426.6L744 440.4Z" fill="#003920" stroke="#003920"></path><path d="M782 491.3L744 440.4L711 469.4Z" fill="#008c9a" stroke="#008c9a"></path><path d="M816 471.4L795 426.6L787 442.4Z" fill="#00c1ff" stroke="#00c1ff"></path><path d="M101 157.6L91 177.3L117 162.4Z" fill="#007e83" stroke="#007e83"></path><path d="M92 183.4L56 219.1L74 226.3Z" fill="#003920" stroke="#003920"></path><path d="M801 347.9L799 304L755 344.9Z" fill="#008c9a" stroke="#008c9a"></path><path d="M776 270L776 210.3L753 235.3Z" fill="#005445" stroke="#005445"></path><path d="M124 110.6L117 162.4L142 159.6Z" fill="#005445" stroke="#005445"></path><path d="M124 110.6L142 159.6L172 91.7Z" fill="#007e83" stroke="#007e83"></path><path d="M69 491.3L124 509.4L111 446.4Z" fill="#009ab2" stroke="#009ab2"></path><path d="M119 520.3L95 600L158 571.1Z" fill="#00a7cb" stroke="#00a7cb"></path><path d="M69 491.3L111 446.4L57 459.6Z" fill="#005445" stroke="#005445"></path><path d="M819 233.1L776 210.3L776 270Z" fill="#008c9a" stroke="#008c9a"></path><path d="M675 94.6L681 43.9L643 57.9Z" fill="#003920" stroke="#003920"></path><path d="M57 459.6L111 446.4L69 421.7Z" fill="#009ab2" stroke="#009ab2"></path><path d="M40 424.7L69 421.7L62 393.6Z" fill="#007e83" stroke="#007e83"></path><path d="M40 424.7L57 459.6L69 421.7Z" fill="#009ab2" stroke="#009ab2"></path><path d="M191 51.9L223 73.7L205 0Z" fill="#00a7cb" stroke="#00a7cb"></path><path d="M198 64.7L191 51.9L172 91.7Z" fill="#00b4e5" stroke="#00b4e5"></path><path d="M728 541.1L782 491.3L711 469.4Z" fill="#00a7cb" stroke="#00a7cb"></path><path d="M788 453.6L816 471.4L787 442.4Z" fill="#009ab2" stroke="#009ab2"></path><path d="M783 152.4L703 88.7L703 152.6Z" fill="#00b4e5" stroke="#00b4e5"></path><path d="M643 57.9L629 0L629 53.7Z" fill="#008c9a" stroke="#008c9a"></path><path d="M132 41.9L124 110.6L172 91.7Z" fill="#005445" stroke="#005445"></path><path d="M37 186.4L92 183.4L91 177.3Z" fill="#004632" stroke="#004632"></path><path d="M6 269.1L38 317L74 226.3Z" fill="#00c1ff" stroke="#00c1ff"></path><path d="M74 226.3L38 317L103 245.1Z" fill="#004632" stroke="#004632"></path><path d="M0 408.7L40 424.7L62 393.6Z" fill="#006259" stroke="#006259"></path><path d="M57 459.6L57 503.4L69 491.3Z" fill="#003920" stroke="#003920"></path><path d="M734 600L747 576.1L710 551.1Z" fill="#00b4e5" stroke="#00b4e5"></path><path d="M728 541.1L806 543.1L782 491.3Z" fill="#005445" stroke="#005445"></path><path d="M37 186.4L91 177.3L52 134.6Z" fill="#00706e" stroke="#00706e"></path><path d="M37 186.4L56 219.1L92 183.4Z" fill="#003920" stroke="#003920"></path><path d="M662 600L734 600L710 551.1Z" fill="#008c9a" stroke="#008c9a"></path><path d="M0 507.3L57 503.4L57 459.6Z" fill="#008c9a" stroke="#008c9a"></path><path d="M69 491.3L57 503.4L84 523.3Z" fill="#003920" stroke="#003920"></path><path d="M71 579.1L95 600L119 520.3Z" fill="#005445" stroke="#005445"></path><path d="M705 47.9L681 43.9L703 88.7Z" fill="#006259" stroke="#006259"></path><path d="M703 88.7L681 43.9L675 94.6Z" fill="#007e83" stroke="#007e83"></path><path d="M806 543.1L728 541.1L747 576.1Z" fill="#009ab2" stroke="#009ab2"></path><path d="M806 543.1L805 499.3L782 491.3Z" fill="#007e83" stroke="#007e83"></path><path d="M782 491.3L816 471.4L788 453.6Z" fill="#00c1ff" stroke="#00c1ff"></path><path d="M795 426.6L859 395.7L797 401.7Z" fill="#004632" stroke="#004632"></path><path d="M797 401.7L859 395.7L801 347.9Z" fill="#006259" stroke="#006259"></path><path d="M805 499.3L816 471.4L782 491.3Z" fill="#009ab2" stroke="#009ab2"></path><path d="M843 248.1L776 270L799 304Z" fill="#009ab2" stroke="#009ab2"></path><path d="M681 43.9L629 0L643 57.9Z" fill="#008c9a" stroke="#008c9a"></path><path d="M734 600L754 600L747 576.1Z" fill="#00c1ff" stroke="#00c1ff"></path><path d="M71 579.1L119 520.3L84 523.3Z" fill="#006259" stroke="#006259"></path><path d="M822 179.4L783 152.4L776 210.3Z" fill="#009ab2" stroke="#009ab2"></path><path d="M776 210.3L783 152.4L708 187.3Z" fill="#00b4e5" stroke="#00b4e5"></path><path d="M843 248.1L819 233.1L776 270Z" fill="#00b4e5" stroke="#00b4e5"></path><path d="M843 248.1L799 304L875 313.9Z" fill="#006259" stroke="#006259"></path><path d="M730 58.9L705 47.9L703 88.7Z" fill="#006259" stroke="#006259"></path><path d="M681 43.9L698 0L629 0Z" fill="#007e83" stroke="#007e83"></path><path d="M191 51.9L132 41.9L172 91.7Z" fill="#00a7cb" stroke="#00a7cb"></path><path d="M205 0L223 73.7L281 30.9Z" fill="#003920" stroke="#003920"></path><path d="M309 0L205 0L281 30.9Z" fill="#003920" stroke="#003920"></path><path d="M38 548.1L84 523.3L57 503.4Z" fill="#009ab2" stroke="#009ab2"></path><path d="M38 548.1L71 579.1L84 523.3Z" fill="#00c1ff" stroke="#00c1ff"></path><path d="M52 134.6L91 177.3L101 157.6Z" fill="#007e83" stroke="#007e83"></path><path d="M0 279.1L0 318L38 317Z" fill="#005445" stroke="#005445"></path><path d="M75 104.7L101 157.6L124 110.6Z" fill="#00706e" stroke="#00706e"></path><path d="M0 318L0 345.9L38 317Z" fill="#003920" stroke="#003920"></path><path d="M38 317L0 345.9L62 393.6Z" fill="#00b4e5" stroke="#00b4e5"></path><path d="M40 424.7L0 439.4L57 459.6Z" fill="#009ab2" stroke="#009ab2"></path><path d="M777 76.9L730 58.9L703 88.7Z" fill="#005445" stroke="#005445"></path><path d="M705 47.9L698 0L681 43.9Z" fill="#005445" stroke="#005445"></path><path d="M805 499.3L832 481.3L816 471.4Z" fill="#004632" stroke="#004632"></path><path d="M754 600L806 543.1L747 576.1Z" fill="#004632" stroke="#004632"></path><path d="M6 269.1L74 226.3L56 219.1Z" fill="#005445" stroke="#005445"></path><path d="M868 545.1L832 481.3L805 499.3Z" fill="#009ab2" stroke="#009ab2"></path><path d="M816 471.4L859 395.7L795 426.6Z" fill="#00b4e5" stroke="#00b4e5"></path><path d="M0 253.3L6 269.1L56 219.1Z" fill="#004632" stroke="#004632"></path><path d="M0 345.9L0 408.7L62 393.6Z" fill="#006259" stroke="#006259"></path><path d="M173 0L191 51.9L190 10.9Z" fill="#005445" stroke="#005445"></path><path d="M173 0L132 41.9L191 51.9Z" fill="#007e83" stroke="#007e83"></path><path d="M102 49.7L75 104.7L124 110.6Z" fill="#008c9a" stroke="#008c9a"></path><path d="M0 408.7L0 427.6L40 424.7Z" fill="#007e83" stroke="#007e83"></path><path d="M0 253.3L0 279.1L6 269.1Z" fill="#003920" stroke="#003920"></path><path d="M6 269.1L0 279.1L38 317Z" fill="#004632" stroke="#004632"></path><path d="M875 313.9L799 304L801 347.9Z" fill="#003920" stroke="#003920"></path><path d="M819 233.1L822 179.4L776 210.3Z" fill="#00706e" stroke="#00706e"></path><path d="M783 152.4L777 76.9L703 88.7Z" fill="#00c1ff" stroke="#00c1ff"></path><path d="M0 518.1L38 548.1L57 503.4Z" fill="#006259" stroke="#006259"></path><path d="M48 600L68 600L71 579.1Z" fill="#006259" stroke="#006259"></path><path d="M71 579.1L68 600L95 600Z" fill="#00c1ff" stroke="#00c1ff"></path><path d="M75 104.7L52 134.6L101 157.6Z" fill="#008c9a" stroke="#008c9a"></path><path d="M37 186.4L0 253.3L56 219.1Z" fill="#00706e" stroke="#00706e"></path><path d="M0 427.6L0 439.4L40 424.7Z" fill="#00c1ff" stroke="#00c1ff"></path><path d="M874 224.3L822 179.4L819 233.1Z" fill="#00a7cb" stroke="#00a7cb"></path><path d="M205 0L173 0L190 10.9Z" fill="#003920" stroke="#003920"></path><path d="M891 438.6L859 395.7L816 471.4Z" fill="#009ab2" stroke="#009ab2"></path><path d="M0 168.4L0 253.3L37 186.4Z" fill="#007e83" stroke="#007e83"></path><path d="M88 44.9L102 49.7L114 0Z" fill="#006259" stroke="#006259"></path><path d="M132 41.9L102 49.7L124 110.6Z" fill="#009ab2" stroke="#009ab2"></path><path d="M75 104.7L0 96.6L52 134.6Z" fill="#006259" stroke="#006259"></path><path d="M819 116.6L802 118.6L843 150.6Z" fill="#005445" stroke="#005445"></path><path d="M726 0L705 47.9L730 58.9Z" fill="#003920" stroke="#003920"></path><path d="M726 0L698 0L705 47.9Z" fill="#00a7cb" stroke="#00a7cb"></path><path d="M802 118.6L777 76.9L783 152.4Z" fill="#004632" stroke="#004632"></path><path d="M0 600L48 600L38 548.1Z" fill="#00c1ff" stroke="#00c1ff"></path><path d="M38 548.1L48 600L71 579.1Z" fill="#00b4e5" stroke="#00b4e5"></path><path d="M0 439.4L0 507.3L57 459.6Z" fill="#00a7cb" stroke="#00a7cb"></path><path d="M777 76.9L765 57.7L730 58.9Z" fill="#007e83" stroke="#007e83"></path><path d="M859 395.7L875 313.9L801 347.9Z" fill="#005445" stroke="#005445"></path><path d="M843 150.6L783 152.4L822 179.4Z" fill="#009ab2" stroke="#009ab2"></path><path d="M843 150.6L802 118.6L783 152.4Z" fill="#006259" stroke="#006259"></path><path d="M0 507.3L0 518.1L57 503.4Z" fill="#006259" stroke="#006259"></path><path d="M114 0L102 49.7L132 41.9Z" fill="#004632" stroke="#004632"></path><path d="M102 49.7L88 44.9L75 104.7Z" fill="#008c9a" stroke="#008c9a"></path><path d="M52 134.6L0 168.4L37 186.4Z" fill="#004632" stroke="#004632"></path><path d="M802 118.6L816 68.7L777 76.9Z" fill="#00b4e5" stroke="#00b4e5"></path><path d="M777 76.9L816 68.7L765 57.7Z" fill="#006259" stroke="#006259"></path><path d="M843 150.6L822 179.4L868 179.4Z" fill="#005445" stroke="#005445"></path><path d="M0 96.6L0 168.4L52 134.6Z" fill="#008c9a" stroke="#008c9a"></path><path d="M173 0L126 0L132 41.9Z" fill="#009ab2" stroke="#009ab2"></path><path d="M747 0L730 58.9L765 57.7Z" fill="#006259" stroke="#006259"></path><path d="M747 0L726 0L730 58.9Z" fill="#009ab2" stroke="#009ab2"></path><path d="M874 224.3L819 233.1L843 248.1Z" fill="#004632" stroke="#004632"></path><path d="M885 265L874 224.3L843 248.1Z" fill="#003920" stroke="#003920"></path><path d="M900 291L885 265L875 313.9Z" fill="#00b4e5" stroke="#00b4e5"></path><path d="M875 313.9L885 265L843 248.1Z" fill="#00b4e5" stroke="#00b4e5"></path><path d="M126 0L114 0L132 41.9Z" fill="#008c9a" stroke="#008c9a"></path><path d="M0 79.9L0 96.6L75 104.7Z" fill="#00c1ff" stroke="#00c1ff"></path><path d="M832 481.3L891 438.6L816 471.4Z" fill="#00b4e5" stroke="#00b4e5"></path><path d="M859 395.7L900 358.9L875 313.9Z" fill="#00c1ff" stroke="#00c1ff"></path><path d="M900 453.4L891 438.6L832 481.3Z" fill="#00b4e5" stroke="#00b4e5"></path><path d="M900 366.7L900 358.9L859 395.7Z" fill="#006259" stroke="#006259"></path><path d="M900 426.6L900 366.7L859 395.7Z" fill="#00c1ff" stroke="#00c1ff"></path><path d="M900 210.4L868 179.4L874 224.3Z" fill="#006259" stroke="#006259"></path><path d="M874 224.3L868 179.4L822 179.4Z" fill="#00b4e5" stroke="#00b4e5"></path><path d="M845 105.7L816 68.7L819 116.6Z" fill="#009ab2" stroke="#009ab2"></path><path d="M754 600L835 600L806 543.1Z" fill="#003920" stroke="#003920"></path><path d="M806 543.1L868 545.1L805 499.3Z" fill="#00c1ff" stroke="#00c1ff"></path><path d="M820 0L747 0L765 57.7Z" fill="#003920" stroke="#003920"></path><path d="M816 68.7L802 118.6L819 116.6Z" fill="#005445" stroke="#005445"></path><path d="M900 358.9L900 291L875 313.9Z" fill="#00a7cb" stroke="#00a7cb"></path><path d="M885 265L900 211.3L874 224.3Z" fill="#00a7cb" stroke="#00a7cb"></path><path d="M900 453.4L900 426.6L891 438.6Z" fill="#009ab2" stroke="#009ab2"></path><path d="M891 438.6L900 426.6L859 395.7Z" fill="#00706e" stroke="#00706e"></path><path d="M900 291L900 273.1L885 265Z" fill="#00b4e5" stroke="#00b4e5"></path><path d="M835 600L868 545.1L806 543.1Z" fill="#00a7cb" stroke="#00a7cb"></path><path d="M845 105.7L819 116.6L843 150.6Z" fill="#004632" stroke="#004632"></path><path d="M900 504.3L900 453.4L832 481.3Z" fill="#008c9a" stroke="#008c9a"></path><path d="M835 600L847 600L868 545.1Z" fill="#008c9a" stroke="#008c9a"></path><path d="M900 164.6L843 150.6L868 179.4Z" fill="#006259" stroke="#006259"></path><path d="M900 116.7L845 105.7L843 150.6Z" fill="#00a7cb" stroke="#00a7cb"></path><path d="M0 518.1L0 600L38 548.1Z" fill="#004632" stroke="#004632"></path><path d="M900 273.1L900 211.3L885 265Z" fill="#005445" stroke="#005445"></path><path d="M0 79.9L75 104.7L0 64.7Z" fill="#00706e" stroke="#00706e"></path><path d="M900 211.3L900 210.4L874 224.3Z" fill="#005445" stroke="#005445"></path><path d="M900 592.1L900 504.3L868 545.1Z" fill="#009ab2" stroke="#009ab2"></path><path d="M868 545.1L900 504.3L832 481.3Z" fill="#008c9a" stroke="#008c9a"></path><path d="M114 0L74 0L88 44.9Z" fill="#003920" stroke="#003920"></path><path d="M900 30.9L832 58.9L845 105.7Z" fill="#009ab2" stroke="#009ab2"></path><path d="M845 105.7L832 58.9L816 68.7Z" fill="#006259" stroke="#006259"></path><path d="M816 68.7L820 0L765 57.7Z" fill="#003920" stroke="#003920"></path><path d="M0 64.7L75 104.7L14 33.9Z" fill="#009ab2" stroke="#009ab2"></path><path d="M900 210.4L900 164.6L868 179.4Z" fill="#003920" stroke="#003920"></path><path d="M14 33.9L75 104.7L88 44.9Z" fill="#00b4e5" stroke="#00b4e5"></path><path d="M74 0L14 33.9L88 44.9Z" fill="#00706e" stroke="#00706e"></path><path d="M832 58.9L820 0L816 68.7Z" fill="#008c9a" stroke="#008c9a"></path><path d="M864 0L820 0L832 58.9Z" fill="#00b4e5" stroke="#00b4e5"></path><path d="M847 600L900 592.1L868 545.1Z" fill="#00706e" stroke="#00706e"></path><path d="M900 164.6L900 116.7L843 150.6Z" fill="#007e83" stroke="#007e83"></path><path d="M847 600L900 600L900 592.1Z" fill="#008c9a" stroke="#008c9a"></path><path d="M74 0L0 0L14 33.9Z" fill="#003920" stroke="#003920"></path><path d="M14 33.9L0 0L0 64.7Z" fill="#008c9a" stroke="#008c9a"></path><path d="M900 30.9L864 0L832 58.9Z" fill="#00706e" stroke="#00706e"></path><path d="M900 116.7L900 30.9L845 105.7Z" fill="#008c9a" stroke="#008c9a"></path><path d="M900 30.9L900 0L864 0Z" fill="#004632" stroke="#004632"></path></g></svg>