<!DOCTYPE svg PUBLIC "-//W3C//DTD SVG 1.1//EN" "http://www.w3.org/Graphics/SVG/1.1/DTD/svg11.dtd">
<!-- Uploaded to: SVG Repo, www.svgrepo.com, Transformed by: SVG Repo Mixer Tools -->
<svg fill="#ffffff" width="256px" height="256px" viewBox="-6 -6 36.00 36.00" xmlns="http://www.w3.org/2000/svg" transform="rotate(0)" stroke="#ffffff" stroke-width="0.00024000000000000003">
<g id="SVGRepo_bgCarrier" stroke-width="0">
<rect x="-6" y="-6" width="36.00" height="36.00" rx="18" fill="#404040" strokewidth="0"/>
</g>
<g id="SVGRepo_tracerCarrier" stroke-linecap="round" stroke-linejoin="round"/>
<g id="SVGRepo_iconCarrier">
<title>outlet</title>
<path d="M8,7h2v5H8ZM4.22,2H19.78A2.23,2.23,0,0,1,22,4.22V19.78A2.22,2.22,0,0,1,19.78,22H4.22A2.23,2.23,0,0,1,2,19.78V4.22A2.22,2.22,0,0,1,4.22,2ZM12,4a8,8,0,1,0,5.66,2.34A8,8,0,0,0,12,4Zm2,3.5h2v4H14Zm-3.5,8.75a1.5,1.5,0,0,1,3,0V17h-3Z"/>
</g>
</svg>