<svg id="visual" viewBox="0 0 900 600" width="900" height="600" xmlns="http://www.w3.org/2000/svg" xmlns:xlink="http://www.w3.org/1999/xlink" version="1.1"><rect width="900" height="600" fill="#001829"></rect><g><g transform="translate(252 195)"><path d="M0 -40.2L38.2 -12.4L23.6 32.5L-23.6 32.5L-38.2 -12.4Z" fill="#297EA6"></path></g><g transform="translate(763 259)"><path d="M0 -38L36.1 -11.7L22.3 30.7L-22.3 30.7L-36.1 -11.7Z" fill="#297EA6"></path></g><g transform="translate(888 428)"><path d="M0 -7L6.7 -2.2L4.1 5.7L-4.1 5.7L-6.7 -2.2Z" fill="#297EA6"></path></g><g transform="translate(329 104)"><path d="M0 -5L4.8 -1.5L2.9 4L-2.9 4L-4.8 -1.5Z" fill="#297EA6"></path></g><g transform="translate(528 106)"><path d="M0 -32L30.4 -9.9L18.8 25.9L-18.8 25.9L-30.4 -9.9Z" fill="#297EA6"></path></g><g transform="translate(192 542)"><path d="M0 -38L36.1 -11.7L22.3 30.7L-22.3 30.7L-36.1 -11.7Z" fill="#297EA6"></path></g><g transform="translate(490 494)"><path d="M0 -22L20.9 -6.8L12.9 17.8L-12.9 17.8L-20.9 -6.8Z" fill="#297EA6"></path></g><g transform="translate(371 239)"><path d="M0 -18L17.1 -5.6L10.6 14.6L-10.6 14.6L-17.1 -5.6Z" fill="#297EA6"></path></g><g transform="translate(551 592)"><path d="M0 -37L35.2 -11.4L21.7 29.9L-21.7 29.9L-35.2 -11.4Z" fill="#297EA6"></path></g><g transform="translate(325 349)"><path d="M0 -24L22.8 -7.4L14.1 19.4L-14.1 19.4L-22.8 -7.4Z" fill="#297EA6"></path></g><g transform="translate(147 411)"><path d="M0 -35L33.3 -10.8L20.6 28.3L-20.6 28.3L-33.3 -10.8Z" fill="#297EA6"></path></g><g transform="translate(858 281)"><path d="M0 -28L26.6 -8.7L16.5 22.7L-16.5 22.7L-26.6 -8.7Z" fill="#297EA6"></path></g><g transform="translate(597 205)"><path d="M0 -14L13.3 -4.3L8.2 11.3L-8.2 11.3L-13.3 -4.3Z" fill="#297EA6"></path></g><g transform="translate(302 594)"><path d="M0 -31L29.5 -9.6L18.2 25.1L-18.2 25.1L-29.5 -9.6Z" fill="#297EA6"></path></g><g transform="translate(427 370)"><path d="M0 -16L15.2 -4.9L9.4 12.9L-9.4 12.9L-15.2 -4.9Z" fill="#297EA6"></path></g><g transform="translate(645 346)"><path d="M0 -29L27.6 -9L17 23.5L-17 23.5L-27.6 -9Z" fill="#297EA6"></path></g><g transform="translate(22 524)"><path d="M0 -13L12.4 -4L7.6 10.5L-7.6 10.5L-12.4 -4Z" fill="#297EA6"></path></g><g transform="translate(37 78)"><path d="M0 -16L15.2 -4.9L9.4 12.9L-9.4 12.9L-15.2 -4.9Z" fill="#297EA6"></path></g><g transform="translate(784 521)"><path d="M0 -11L10.5 -3.4L6.5 8.9L-6.5 8.9L-10.5 -3.4Z" fill="#297EA6"></path></g><g transform="translate(47 174)"><path d="M0 -13L12.4 -4L7.6 10.5L-7.6 10.5L-12.4 -4Z" fill="#297EA6"></path></g><g transform="translate(130 90)"><path d="M0 -14L13.3 -4.3L8.2 11.3L-8.2 11.3L-13.3 -4.3Z" fill="#297EA6"></path></g><g transform="translate(715 389)"><path d="M0 -39L37.1 -12.1L22.9 31.6L-22.9 31.6L-37.1 -12.1Z" fill="#297EA6"></path></g><g transform="translate(551 280)"><path d="M0 -13L12.4 -4L7.6 10.5L-7.6 10.5L-12.4 -4Z" fill="#297EA6"></path></g><g transform="translate(52 338)"><path d="M0 -18L17.1 -5.6L10.6 14.6L-10.6 14.6L-17.1 -5.6Z" fill="#297EA6"></path></g><g transform="translate(656 95)"><path d="M0 -22L20.9 -6.8L12.9 17.8L-12.9 17.8L-20.9 -6.8Z" fill="#297EA6"></path></g><g transform="translate(403 46)"><path d="M0 -39L37.1 -12.1L22.9 31.6L-22.9 31.6L-37.1 -12.1Z" fill="#297EA6"></path></g><g transform="translate(248 292)"><path d="M0 -17L16.2 -5.3L10 13.8L-10 13.8L-16.2 -5.3Z" fill="#297EA6"></path></g><g transform="translate(715 193)"><path d="M0 -13L12.4 -4L7.6 10.5L-7.6 10.5L-12.4 -4Z" fill="#297EA6"></path></g><g transform="translate(718 471)"><path d="M0 -34L32.3 -10.5L20 27.5L-20 27.5L-32.3 -10.5Z" fill="#297EA6"></path></g><g transform="translate(112 261)"><path d="M0 -15L14.3 -4.6L8.8 12.1L-8.8 12.1L-14.3 -4.6Z" fill="#297EA6"></path></g><g transform="translate(496 219)"><path d="M0 -19L18.1 -5.9L11.2 15.4L-11.2 15.4L-18.1 -5.9Z" fill="#297EA6"></path></g><g transform="translate(324 492)"><path d="M0 -31L29.5 -9.6L18.2 25.1L-18.2 25.1L-29.5 -9.6Z" fill="#297EA6"></path></g><g transform="translate(618 494)"><path d="M0 -34L32.3 -10.5L20 27.5L-20 27.5L-32.3 -10.5Z" fill="#297EA6"></path></g><g transform="translate(215 80)"><path d="M0 -14L13.3 -4.3L8.2 11.3L-8.2 11.3L-13.3 -4.3Z" fill="#297EA6"></path></g><g transform="translate(426 156)"><path d="M0 -34L32.3 -10.5L20 27.5L-20 27.5L-32.3 -10.5Z" fill="#297EA6"></path></g><g transform="translate(526 419)"><path d="M0 -11L10.5 -3.4L6.5 8.9L-6.5 8.9L-10.5 -3.4Z" fill="#297EA6"></path></g><g transform="translate(739 590)"><path d="M0 -33L31.4 -10.2L19.4 26.7L-19.4 26.7L-31.4 -10.2Z" fill="#297EA6"></path></g><g transform="translate(775 97)"><path d="M0 -25L23.8 -7.7L14.7 20.2L-14.7 20.2L-23.8 -7.7Z" fill="#297EA6"></path></g><g transform="translate(84 3)"><path d="M0 -13L12.4 -4L7.6 10.5L-7.6 10.5L-12.4 -4Z" fill="#297EA6"></path></g><g transform="translate(248 450)"><path d="M0 -37L35.2 -11.4L21.7 29.9L-21.7 29.9L-35.2 -11.4Z" fill="#297EA6"></path></g><g transform="translate(856 17)"><path d="M0 -8L7.6 -2.5L4.7 6.5L-4.7 6.5L-7.6 -2.5Z" fill="#297EA6"></path></g><g transform="translate(418 571)"><path d="M0 -34L32.3 -10.5L20 27.5L-20 27.5L-32.3 -10.5Z" fill="#297EA6"></path></g><g transform="translate(105 533)"><path d="M0 -33L31.4 -10.2L19.4 26.7L-19.4 26.7L-31.4 -10.2Z" fill="#297EA6"></path></g><g transform="translate(846 143)"><path d="M0 -21L20 -6.5L12.3 17L-12.3 17L-20 -6.5Z" fill="#297EA6"></path></g><g transform="translate(637 14)"><path d="M0 -16L15.2 -4.9L9.4 12.9L-9.4 12.9L-15.2 -4.9Z" fill="#297EA6"></path></g><g transform="translate(841 360)"><path d="M0 -24L22.8 -7.4L14.1 19.4L-14.1 19.4L-22.8 -7.4Z" fill="#297EA6"></path></g><g transform="translate(304 15)"><path d="M0 -30L28.5 -9.3L17.6 24.3L-17.6 24.3L-28.5 -9.3Z" fill="#297EA6"></path></g><g transform="translate(499 18)"><path d="M0 -22L20.9 -6.8L12.9 17.8L-12.9 17.8L-20.9 -6.8Z" fill="#297EA6"></path></g><g transform="translate(737 8)"><path d="M0 -9L8.6 -2.8L5.3 7.3L-5.3 7.3L-8.6 -2.8Z" fill="#297EA6"></path></g><g transform="translate(31 431)"><path d="M0 -24L22.8 -7.4L14.1 19.4L-14.1 19.4L-22.8 -7.4Z" fill="#297EA6"></path></g><g transform="translate(880 590)"><path d="M0 -9L8.6 -2.8L5.3 7.3L-5.3 7.3L-8.6 -2.8Z" fill="#297EA6"></path></g><g transform="translate(677 272)"><path d="M0 -27L25.7 -8.3L15.9 21.8L-15.9 21.8L-25.7 -8.3Z" fill="#297EA6"></path></g><g transform="translate(182 3)"><path d="M0 -39L37.1 -12.1L22.9 31.6L-22.9 31.6L-37.1 -12.1Z" fill="#297EA6"></path></g><g transform="translate(172 320)"><path d="M0 -39L37.1 -12.1L22.9 31.6L-22.9 31.6L-37.1 -12.1Z" fill="#297EA6"></path></g><g transform="translate(397 456)"><path d="M0 -28L26.6 -8.7L16.5 22.7L-16.5 22.7L-26.6 -8.7Z" fill="#297EA6"></path></g><g transform="translate(632 596)"><path d="M0 -9L8.6 -2.8L5.3 7.3L-5.3 7.3L-8.6 -2.8Z" fill="#297EA6"></path></g><g transform="translate(130 171)"><path d="M0 -6L5.7 -1.9L3.5 4.9L-3.5 4.9L-5.7 -1.9Z" fill="#297EA6"></path></g><g transform="translate(1 241)"><path d="M0 -25L23.8 -7.7L14.7 20.2L-14.7 20.2L-23.8 -7.7Z" fill="#297EA6"></path></g><g transform="translate(466 299)"><path d="M0 -5L4.8 -1.5L2.9 4L-2.9 4L-4.8 -1.5Z" fill="#297EA6"></path></g><g transform="translate(797 440)"><path d="M0 -13L12.4 -4L7.6 10.5L-7.6 10.5L-12.4 -4Z" fill="#297EA6"></path></g><g transform="translate(895 207)"><path d="M0 -31L29.5 -9.6L18.2 25.1L-18.2 25.1L-29.5 -9.6Z" fill="#297EA6"></path></g></g></svg>