<svg id="visual" viewBox="0 0 900 600" width="900" height="600" xmlns="http://www.w3.org/2000/svg" xmlns:xlink="http://www.w3.org/1999/xlink" version="1.1"><rect width="900" height="600" fill="#001829"></rect><g><g transform="translate(434 516)"><path d="M0 -40.2L23.6 -32.5L38.2 -12.4L38.2 12.4L23.6 32.5L0 40.2L-23.6 32.5L-38.2 12.4L-38.2 -12.4L-23.6 -32.5Z" fill="#297EA6"></path></g><g transform="translate(512 480)"><path d="M0 -9L5.3 -7.3L8.6 -2.8L8.6 2.8L5.3 7.3L0 9L-5.3 7.3L-8.6 2.8L-8.6 -2.8L-5.3 -7.3Z" fill="#297EA6"></path></g><g transform="translate(57 238)"><path d="M0 -20L11.8 -16.2L19 -6.2L19 6.2L11.8 16.2L0 20L-11.8 16.2L-19 6.2L-19 -6.2L-11.8 -16.2Z" fill="#297EA6"></path></g><g transform="translate(719 180)"><path d="M0 -28L16.5 -22.7L26.6 -8.7L26.6 8.7L16.5 22.7L0 28L-16.5 22.7L-26.6 8.7L-26.6 -8.7L-16.5 -22.7Z" fill="#297EA6"></path></g><g transform="translate(437 346)"><path d="M0 -28L16.5 -22.7L26.6 -8.7L26.6 8.7L16.5 22.7L0 28L-16.5 22.7L-26.6 8.7L-26.6 -8.7L-16.5 -22.7Z" fill="#297EA6"></path></g><g transform="translate(136 107)"><path d="M0 -36L21.2 -29.1L34.2 -11.1L34.2 11.1L21.2 29.1L0 36L-21.2 29.1L-34.2 11.1L-34.2 -11.1L-21.2 -29.1Z" fill="#297EA6"></path></g><g transform="translate(883 321)"><path d="M0 -36L21.2 -29.1L34.2 -11.1L34.2 11.1L21.2 29.1L0 36L-21.2 29.1L-34.2 11.1L-34.2 -11.1L-21.2 -29.1Z" fill="#297EA6"></path></g><g transform="translate(480 98)"><path d="M0 -34L20 -27.5L32.3 -10.5L32.3 10.5L20 27.5L0 34L-20 27.5L-32.3 10.5L-32.3 -10.5L-20 -27.5Z" fill="#297EA6"></path></g><g transform="translate(660 77)"><path d="M0 -14L8.2 -11.3L13.3 -4.3L13.3 4.3L8.2 11.3L0 14L-8.2 11.3L-13.3 4.3L-13.3 -4.3L-8.2 -11.3Z" fill="#297EA6"></path></g><g transform="translate(740 332)"><path d="M0 -20L11.8 -16.2L19 -6.2L19 6.2L11.8 16.2L0 20L-11.8 16.2L-19 6.2L-19 -6.2L-11.8 -16.2Z" fill="#297EA6"></path></g><g transform="translate(218 229)"><path d="M0 -23L13.5 -18.6L21.9 -7.1L21.9 7.1L13.5 18.6L0 23L-13.5 18.6L-21.9 7.1L-21.9 -7.1L-13.5 -18.6Z" fill="#297EA6"></path></g><g transform="translate(814 59)"><path d="M0 -38L22.3 -30.7L36.1 -11.7L36.1 11.7L22.3 30.7L0 38L-22.3 30.7L-36.1 11.7L-36.1 -11.7L-22.3 -30.7Z" fill="#297EA6"></path></g><g transform="translate(895 190)"><path d="M0 -29L17 -23.5L27.6 -9L27.6 9L17 23.5L0 29L-17 23.5L-27.6 9L-27.6 -9L-17 -23.5Z" fill="#297EA6"></path></g><g transform="translate(132 312)"><path d="M0 -30L17.6 -24.3L28.5 -9.3L28.5 9.3L17.6 24.3L0 30L-17.6 24.3L-28.5 9.3L-28.5 -9.3L-17.6 -24.3Z" fill="#297EA6"></path></g><g transform="translate(264 17)"><path d="M0 -7L4.1 -5.7L6.7 -2.2L6.7 2.2L4.1 5.7L0 7L-4.1 5.7L-6.7 2.2L-6.7 -2.2L-4.1 -5.7Z" fill="#297EA6"></path></g><g transform="translate(620 171)"><path d="M0 -29L17 -23.5L27.6 -9L27.6 9L17 23.5L0 29L-17 23.5L-27.6 9L-27.6 -9L-17 -23.5Z" fill="#297EA6"></path></g><g transform="translate(199 592)"><path d="M0 -39L22.9 -31.6L37.1 -12.1L37.1 12.1L22.9 31.6L0 39L-22.9 31.6L-37.1 12.1L-37.1 -12.1L-22.9 -31.6Z" fill="#297EA6"></path></g><g transform="translate(37 131)"><path d="M0 -26L15.3 -21L24.7 -8L24.7 8L15.3 21L0 26L-15.3 21L-24.7 8L-24.7 -8L-15.3 -21Z" fill="#297EA6"></path></g><g transform="translate(141 462)"><path d="M0 -16L9.4 -12.9L15.2 -4.9L15.2 4.9L9.4 12.9L0 16L-9.4 12.9L-15.2 4.9L-15.2 -4.9L-9.4 -12.9Z" fill="#297EA6"></path></g><g transform="translate(37 2)"><path d="M0 -9L5.3 -7.3L8.6 -2.8L8.6 2.8L5.3 7.3L0 9L-5.3 7.3L-8.6 2.8L-8.6 -2.8L-5.3 -7.3Z" fill="#297EA6"></path></g><g transform="translate(335 289)"><path d="M0 -14L8.2 -11.3L13.3 -4.3L13.3 4.3L8.2 11.3L0 14L-8.2 11.3L-13.3 4.3L-13.3 -4.3L-8.2 -11.3Z" fill="#297EA6"></path></g><g transform="translate(241 335)"><path d="M0 -21L12.3 -17L20 -6.5L20 6.5L12.3 17L0 21L-12.3 17L-20 6.5L-20 -6.5L-12.3 -17Z" fill="#297EA6"></path></g><g transform="translate(235 493)"><path d="M0 -36L21.2 -29.1L34.2 -11.1L34.2 11.1L21.2 29.1L0 36L-21.2 29.1L-34.2 11.1L-34.2 -11.1L-21.2 -29.1Z" fill="#297EA6"></path></g><g transform="translate(482 10)"><path d="M0 -30L17.6 -24.3L28.5 -9.3L28.5 9.3L17.6 24.3L0 30L-17.6 24.3L-28.5 9.3L-28.5 -9.3L-17.6 -24.3Z" fill="#297EA6"></path></g><g transform="translate(663 563)"><path d="M0 -5L2.9 -4L4.8 -1.5L4.8 1.5L2.9 4L0 5L-2.9 4L-4.8 1.5L-4.8 -1.5L-2.9 -4Z" fill="#297EA6"></path></g><g transform="translate(373 117)"><path d="M0 -13L7.6 -10.5L12.4 -4L12.4 4L7.6 10.5L0 13L-7.6 10.5L-12.4 4L-12.4 -4L-7.6 -10.5Z" fill="#297EA6"></path></g><g transform="translate(761 483)"><path d="M0 -24L14.1 -19.4L22.8 -7.4L22.8 7.4L14.1 19.4L0 24L-14.1 19.4L-22.8 7.4L-22.8 -7.4L-14.1 -19.4Z" fill="#297EA6"></path></g><g transform="translate(871 471)"><path d="M0 -21L12.3 -17L20 -6.5L20 6.5L12.3 17L0 21L-12.3 17L-20 6.5L-20 -6.5L-12.3 -17Z" fill="#297EA6"></path></g><g transform="translate(542 403)"><path d="M0 -19L11.2 -15.4L18.1 -5.9L18.1 5.9L11.2 15.4L0 19L-11.2 15.4L-18.1 5.9L-18.1 -5.9L-11.2 -15.4Z" fill="#297EA6"></path></g><g transform="translate(265 133)"><path d="M0 -35L20.6 -28.3L33.3 -10.8L33.3 10.8L20.6 28.3L0 35L-20.6 28.3L-33.3 10.8L-33.3 -10.8L-20.6 -28.3Z" fill="#297EA6"></path></g><g transform="translate(651 292)"><path d="M0 -36L21.2 -29.1L34.2 -11.1L34.2 11.1L21.2 29.1L0 36L-21.2 29.1L-34.2 11.1L-34.2 -11.1L-21.2 -29.1Z" fill="#297EA6"></path></g><g transform="translate(167 8)"><path d="M0 -18L10.6 -14.6L17.1 -5.6L17.1 5.6L10.6 14.6L0 18L-10.6 14.6L-17.1 5.6L-17.1 -5.6L-10.6 -14.6Z" fill="#297EA6"></path></g><g transform="translate(2 441)"><path d="M0 -30L17.6 -24.3L28.5 -9.3L28.5 9.3L17.6 24.3L0 30L-17.6 24.3L-28.5 9.3L-28.5 -9.3L-17.6 -24.3Z" fill="#297EA6"></path></g><g transform="translate(739 589)"><path d="M0 -30L17.6 -24.3L28.5 -9.3L28.5 9.3L17.6 24.3L0 30L-17.6 24.3L-28.5 9.3L-28.5 -9.3L-17.6 -24.3Z" fill="#297EA6"></path></g><g transform="translate(623 450)"><path d="M0 -27L15.9 -21.8L25.7 -8.3L25.7 8.3L15.9 21.8L0 27L-15.9 21.8L-25.7 8.3L-25.7 -8.3L-15.9 -21.8Z" fill="#297EA6"></path></g><g transform="translate(575 539)"><path d="M0 -32L18.8 -25.9L30.4 -9.9L30.4 9.9L18.8 25.9L0 32L-18.8 25.9L-30.4 9.9L-30.4 -9.9L-18.8 -25.9Z" fill="#297EA6"></path></g><g transform="translate(22 317)"><path d="M0 -24L14.1 -19.4L22.8 -7.4L22.8 7.4L14.1 19.4L0 24L-14.1 19.4L-22.8 7.4L-22.8 -7.4L-14.1 -19.4Z" fill="#297EA6"></path></g><g transform="translate(868 591)"><path d="M0 -17L10 -13.8L16.2 -5.3L16.2 5.3L10 13.8L0 17L-10 13.8L-16.2 5.3L-16.2 -5.3L-10 -13.8Z" fill="#297EA6"></path></g><g transform="translate(329 457)"><path d="M0 -34L20 -27.5L32.3 -10.5L32.3 10.5L20 27.5L0 34L-20 27.5L-32.3 10.5L-32.3 -10.5L-20 -27.5Z" fill="#297EA6"></path></g><g transform="translate(34 543)"><path d="M0 -24L14.1 -19.4L22.8 -7.4L22.8 7.4L14.1 19.4L0 24L-14.1 19.4L-22.8 7.4L-22.8 -7.4L-14.1 -19.4Z" fill="#297EA6"></path></g><g transform="translate(402 217)"><path d="M0 -39L22.9 -31.6L37.1 -12.1L37.1 12.1L22.9 31.6L0 39L-22.9 31.6L-37.1 12.1L-37.1 -12.1L-22.9 -31.6Z" fill="#297EA6"></path></g><g transform="translate(116 583)"><path d="M0 -21L12.3 -17L20 -6.5L20 6.5L12.3 17L0 21L-12.3 17L-20 6.5L-20 -6.5L-12.3 -17Z" fill="#297EA6"></path></g><g transform="translate(885 2)"><path d="M0 -32L18.8 -25.9L30.4 -9.9L30.4 9.9L18.8 25.9L0 32L-18.8 25.9L-30.4 9.9L-30.4 -9.9L-18.8 -25.9Z" fill="#297EA6"></path></g><g transform="translate(373 587)"><path d="M0 -16L9.4 -12.9L15.2 -4.9L15.2 4.9L9.4 12.9L0 16L-9.4 12.9L-15.2 4.9L-15.2 -4.9L-9.4 -12.9Z" fill="#297EA6"></path></g><g transform="translate(806 273)"><path d="M0 -29L17 -23.5L27.6 -9L27.6 9L17 23.5L0 29L-17 23.5L-27.6 9L-27.6 -9L-17 -23.5Z" fill="#297EA6"></path></g><g transform="translate(502 177)"><path d="M0 -29L17 -23.5L27.6 -9L27.6 9L17 23.5L0 29L-17 23.5L-27.6 9L-27.6 -9L-17 -23.5Z" fill="#297EA6"></path></g><g transform="translate(818 146)"><path d="M0 -9L5.3 -7.3L8.6 -2.8L8.6 2.8L5.3 7.3L0 9L-5.3 7.3L-8.6 2.8L-8.6 -2.8L-5.3 -7.3Z" fill="#297EA6"></path></g><g transform="translate(284 570)"><path d="M0 -14L8.2 -11.3L13.3 -4.3L13.3 4.3L8.2 11.3L0 14L-8.2 11.3L-13.3 4.3L-13.3 -4.3L-8.2 -11.3Z" fill="#297EA6"></path></g><g transform="translate(570 63)"><path d="M0 -32L18.8 -25.9L30.4 -9.9L30.4 9.9L18.8 25.9L0 32L-18.8 25.9L-30.4 9.9L-30.4 -9.9L-18.8 -25.9Z" fill="#297EA6"></path></g><g transform="translate(369 12)"><path d="M0 -29L17 -23.5L27.6 -9L27.6 9L17 23.5L0 29L-17 23.5L-27.6 9L-27.6 -9L-17 -23.5Z" fill="#297EA6"></path></g><g transform="translate(812 407)"><path d="M0 -39L22.9 -31.6L37.1 -12.1L37.1 12.1L22.9 31.6L0 39L-22.9 31.6L-37.1 12.1L-37.1 -12.1L-22.9 -31.6Z" fill="#297EA6"></path></g><g transform="translate(553 282)"><path d="M0 -16L9.4 -12.9L15.2 -4.9L15.2 4.9L9.4 12.9L0 16L-9.4 12.9L-15.2 4.9L-15.2 -4.9L-9.4 -12.9Z" fill="#297EA6"></path></g><g transform="translate(713 8)"><path d="M0 -30L17.6 -24.3L28.5 -9.3L28.5 9.3L17.6 24.3L0 30L-17.6 24.3L-28.5 9.3L-28.5 -9.3L-17.6 -24.3Z" fill="#297EA6"></path></g><g transform="translate(82 402)"><path d="M0 -32L18.8 -25.9L30.4 -9.9L30.4 9.9L18.8 25.9L0 32L-18.8 25.9L-30.4 9.9L-30.4 -9.9L-18.8 -25.9Z" fill="#297EA6"></path></g><g transform="translate(476 258)"><path d="M0 -31L18.2 -25.1L29.5 -9.6L29.5 9.6L18.2 25.1L0 31L-18.2 25.1L-29.5 9.6L-29.5 -9.6L-18.2 -25.1Z" fill="#297EA6"></path></g><g transform="translate(512 592)"><path d="M0 -37L21.7 -29.9L35.2 -11.4L35.2 11.4L21.7 29.9L0 37L-21.7 29.9L-35.2 11.4L-35.2 -11.4L-21.7 -29.9Z" fill="#297EA6"></path></g><g transform="translate(137 221)"><path d="M0 -24L14.1 -19.4L22.8 -7.4L22.8 7.4L14.1 19.4L0 24L-14.1 19.4L-22.8 7.4L-22.8 -7.4L-14.1 -19.4Z" fill="#297EA6"></path></g><g transform="translate(725 411)"><path d="M0 -35L20.6 -28.3L33.3 -10.8L33.3 10.8L20.6 28.3L0 35L-20.6 28.3L-33.3 10.8L-33.3 -10.8L-20.6 -28.3Z" fill="#297EA6"></path></g><g transform="translate(889 99)"><path d="M0 -36L21.2 -29.1L34.2 -11.1L34.2 11.1L21.2 29.1L0 36L-21.2 29.1L-34.2 11.1L-34.2 -11.1L-21.2 -29.1Z" fill="#297EA6"></path></g><g transform="translate(349 373)"><path d="M0 -7L4.1 -5.7L6.7 -2.2L6.7 2.2L4.1 5.7L0 7L-4.1 5.7L-6.7 2.2L-6.7 -2.2L-4.1 -5.7Z" fill="#297EA6"></path></g><g transform="translate(432 430)"><path d="M0 -29L17 -23.5L27.6 -9L27.6 9L17 23.5L0 29L-17 23.5L-27.6 9L-27.6 -9L-17 -23.5Z" fill="#297EA6"></path></g><g transform="translate(653 375)"><path d="M0 -21L12.3 -17L20 -6.5L20 6.5L12.3 17L0 21L-12.3 17L-20 6.5L-20 -6.5L-12.3 -17Z" fill="#297EA6"></path></g><g transform="translate(194 400)"><path d="M0 -10L5.9 -8.1L9.5 -3.1L9.5 3.1L5.9 8.1L0 10L-5.9 8.1L-9.5 3.1L-9.5 -3.1L-5.9 -8.1Z" fill="#297EA6"></path></g></g></svg>