<svg id="visual" viewBox="0 0 900 600" width="900" height="600" xmlns="http://www.w3.org/2000/svg" xmlns:xlink="http://www.w3.org/1999/xlink" version="1.1"><rect width="900" height="600" fill="#001829"></rect><g><g transform="translate(269 294)"><path d="M0 -40.2L40.2 0L0 40.2L-40.2 0Z" fill="#297EA6"></path></g><g transform="translate(892 123)"><path d="M0 -21L21 0L0 21L-21 0Z" fill="#297EA6"></path></g><g transform="translate(248 18)"><path d="M0 -24L24 0L0 24L-24 0Z" fill="#297EA6"></path></g><g transform="translate(199 498)"><path d="M0 -11L11 0L0 11L-11 0Z" fill="#297EA6"></path></g><g transform="translate(574 116)"><path d="M0 -39L39 0L0 39L-39 0Z" fill="#297EA6"></path></g><g transform="translate(606 24)"><path d="M0 -24L24 0L0 24L-24 0Z" fill="#297EA6"></path></g><g transform="translate(712 273)"><path d="M0 -30L30 0L0 30L-30 0Z" fill="#297EA6"></path></g><g transform="translate(418 93)"><path d="M0 -18L18 0L0 18L-18 0Z" fill="#297EA6"></path></g><g transform="translate(92 9)"><path d="M0 -9L9 0L0 9L-9 0Z" fill="#297EA6"></path></g><g transform="translate(511 371)"><path d="M0 -9L9 0L0 9L-9 0Z" fill="#297EA6"></path></g><g transform="translate(874 365)"><path d="M0 -34L34 0L0 34L-34 0Z" fill="#297EA6"></path></g><g transform="translate(864 481)"><path d="M0 -22L22 0L0 22L-22 0Z" fill="#297EA6"></path></g><g transform="translate(740 19)"><path d="M0 -17L17 0L0 17L-17 0Z" fill="#297EA6"></path></g><g transform="translate(341 67)"><path d="M0 -6L6 0L0 6L-6 0Z" fill="#297EA6"></path></g><g transform="translate(141 391)"><path d="M0 -33L33 0L0 33L-33 0Z" fill="#297EA6"></path></g><g transform="translate(40 268)"><path d="M0 -30L30 0L0 30L-30 0Z" fill="#297EA6"></path></g><g transform="translate(428 203)"><path d="M0 -5L5 0L0 5L-5 0Z" fill="#297EA6"></path></g><g transform="translate(719 378)"><path d="M0 -9L9 0L0 9L-9 0Z" fill="#297EA6"></path></g><g transform="translate(737 545)"><path d="M0 -18L18 0L0 18L-18 0Z" fill="#297EA6"></path></g><g transform="translate(41 541)"><path d="M0 -9L9 0L0 9L-9 0Z" fill="#297EA6"></path></g><g transform="translate(831 594)"><path d="M0 -16L16 0L0 16L-16 0Z" fill="#297EA6"></path></g><g transform="translate(634 335)"><path d="M0 -20L20 0L0 20L-20 0Z" fill="#297EA6"></path></g><g transform="translate(198 149)"><path d="M0 -31L31 0L0 31L-31 0Z" fill="#297EA6"></path></g><g transform="translate(359 327)"><path d="M0 -16L16 0L0 16L-16 0Z" fill="#297EA6"></path></g><g transform="translate(616 213)"><path d="M0 -22L22 0L0 22L-22 0Z" fill="#297EA6"></path></g><g transform="translate(694 111)"><path d="M0 -32L32 0L0 32L-32 0Z" fill="#297EA6"></path></g><g transform="translate(60 166)"><path d="M0 -26L26 0L0 26L-26 0Z" fill="#297EA6"></path></g><g transform="translate(642 540)"><path d="M0 -12L12 0L0 12L-12 0Z" fill="#297EA6"></path></g><g transform="translate(491 475)"><path d="M0 -38L38 0L0 38L-38 0Z" fill="#297EA6"></path></g><g transform="translate(495 249)"><path d="M0 -38L38 0L0 38L-38 0Z" fill="#297EA6"></path></g><g transform="translate(451 555)"><path d="M0 -20L20 0L0 20L-20 0Z" fill="#297EA6"></path></g><g transform="translate(118 92)"><path d="M0 -15L15 0L0 15L-15 0Z" fill="#297EA6"></path></g><g transform="translate(185 233)"><path d="M0 -21L21 0L0 21L-21 0Z" fill="#297EA6"></path></g><g transform="translate(764 163)"><path d="M0 -34L34 0L0 34L-34 0Z" fill="#297EA6"></path></g><g transform="translate(487 22)"><path d="M0 -21L21 0L0 21L-21 0Z" fill="#297EA6"></path></g><g transform="translate(283 159)"><path d="M0 -29L29 0L0 29L-29 0Z" fill="#297EA6"></path></g><g transform="translate(162 578)"><path d="M0 -14L14 0L0 14L-14 0Z" fill="#297EA6"></path></g><g transform="translate(344 557)"><path d="M0 -10L10 0L0 10L-10 0Z" fill="#297EA6"></path></g><g transform="translate(491 149)"><path d="M0 -20L20 0L0 20L-20 0Z" fill="#297EA6"></path></g><g transform="translate(806 269)"><path d="M0 -13L13 0L0 13L-13 0Z" fill="#297EA6"></path></g><g transform="translate(78 466)"><path d="M0 -31L31 0L0 31L-31 0Z" fill="#297EA6"></path></g><g transform="translate(892 210)"><path d="M0 -5L5 0L0 5L-5 0Z" fill="#297EA6"></path></g><g transform="translate(45 383)"><path d="M0 -35L35 0L0 35L-35 0Z" fill="#297EA6"></path></g><g transform="translate(303 397)"><path d="M0 -31L31 0L0 31L-31 0Z" fill="#297EA6"></path></g><g transform="translate(424 412)"><path d="M0 -36L36 0L0 36L-36 0Z" fill="#297EA6"></path></g><g transform="translate(780 473)"><path d="M0 -18L18 0L0 18L-18 0Z" fill="#297EA6"></path></g><g transform="translate(112 305)"><path d="M0 -10L10 0L0 10L-10 0Z" fill="#297EA6"></path></g><g transform="translate(543 584)"><path d="M0 -26L26 0L0 26L-26 0Z" fill="#297EA6"></path></g><g transform="translate(249 577)"><path d="M0 -35L35 0L0 35L-35 0Z" fill="#297EA6"></path></g><g transform="translate(810 65)"><path d="M0 -25L25 0L0 25L-25 0Z" fill="#297EA6"></path></g><g transform="translate(664 452)"><path d="M0 -7L7 0L0 7L-7 0Z" fill="#297EA6"></path></g><g transform="translate(3 65)"><path d="M0 -32L32 0L0 32L-32 0Z" fill="#297EA6"></path></g><g transform="translate(288 482)"><path d="M0 -18L18 0L0 18L-18 0Z" fill="#297EA6"></path></g><g transform="translate(578 472)"><path d="M0 -5L5 0L0 5L-5 0Z" fill="#297EA6"></path></g><g transform="translate(369 477)"><path d="M0 -8L8 0L0 8L-8 0Z" fill="#297EA6"></path></g><g transform="translate(895 22)"><path d="M0 -17L17 0L0 17L-17 0Z" fill="#297EA6"></path></g><g transform="translate(403 8)"><path d="M0 -13L13 0L0 13L-13 0Z" fill="#297EA6"></path></g><g transform="translate(331 226)"><path d="M0 -24L24 0L0 24L-24 0Z" fill="#297EA6"></path></g><g transform="translate(562 296)"><path d="M0 -27L27 0L0 27L-27 0Z" fill="#297EA6"></path></g><g transform="translate(439 314)"><path d="M0 -34L34 0L0 34L-34 0Z" fill="#297EA6"></path></g><g transform="translate(221 378)"><path d="M0 -37L37 0L0 37L-37 0Z" fill="#297EA6"></path></g></g></svg>