<svg id="visual" viewBox="0 0 900 600" width="900" height="600" xmlns="http://www.w3.org/2000/svg" xmlns:xlink="http://www.w3.org/1999/xlink" version="1.1"><rect width="900" height="600" fill="#001829"></rect><g><g transform="translate(10 397)"><path d="M0 -40.2L34.8 20.1L-34.8 20.1Z" fill="#297EA6"></path></g><g transform="translate(367 545)"><path d="M0 -25L21.7 12.5L-21.7 12.5Z" fill="#297EA6"></path></g><g transform="translate(526 439)"><path d="M0 -37L32 18.5L-32 18.5Z" fill="#297EA6"></path></g><g transform="translate(814 431)"><path d="M0 -35L30.3 17.5L-30.3 17.5Z" fill="#297EA6"></path></g><g transform="translate(746 182)"><path d="M0 -33L28.6 16.5L-28.6 16.5Z" fill="#297EA6"></path></g><g transform="translate(892 334)"><path d="M0 -29L25.1 14.5L-25.1 14.5Z" fill="#297EA6"></path></g><g transform="translate(109 525)"><path d="M0 -32L27.7 16L-27.7 16Z" fill="#297EA6"></path></g><g transform="translate(600 510)"><path d="M0 -19L16.5 9.5L-16.5 9.5Z" fill="#297EA6"></path></g><g transform="translate(622 49)"><path d="M0 -23L19.9 11.5L-19.9 11.5Z" fill="#297EA6"></path></g><g transform="translate(213 115)"><path d="M0 -14L12.1 7L-12.1 7Z" fill="#297EA6"></path></g><g transform="translate(525 290)"><path d="M0 -11L9.5 5.5L-9.5 5.5Z" fill="#297EA6"></path></g><g transform="translate(756 9)"><path d="M0 -34L29.4 17L-29.4 17Z" fill="#297EA6"></path></g><g transform="translate(499 129)"><path d="M0 -28L24.2 14L-24.2 14Z" fill="#297EA6"></path></g><g transform="translate(90 277)"><path d="M0 -30L26 15L-26 15Z" fill="#297EA6"></path></g><g transform="translate(261 188)"><path d="M0 -36L31.2 18L-31.2 18Z" fill="#297EA6"></path></g><g transform="translate(873 75)"><path d="M0 -37L32 18.5L-32 18.5Z" fill="#297EA6"></path></g><g transform="translate(880 168)"><path d="M0 -6L5.2 3L-5.2 3Z" fill="#297EA6"></path></g><g transform="translate(682 546)"><path d="M0 -29L25.1 14.5L-25.1 14.5Z" fill="#297EA6"></path></g><g transform="translate(262 355)"><path d="M0 -29L25.1 14.5L-25.1 14.5Z" fill="#297EA6"></path></g><g transform="translate(270 497)"><path d="M0 -19L16.5 9.5L-16.5 9.5Z" fill="#297EA6"></path></g><g transform="translate(862 566)"><path d="M0 -25L21.7 12.5L-21.7 12.5Z" fill="#297EA6"></path></g><g transform="translate(363 159)"><path d="M0 -26L22.5 13L-22.5 13Z" fill="#297EA6"></path></g><g transform="translate(780 522)"><path d="M0 -34L29.4 17L-29.4 17Z" fill="#297EA6"></path></g><g transform="translate(297 595)"><path d="M0 -21L18.2 10.5L-18.2 10.5Z" fill="#297EA6"></path></g><g transform="translate(569 361)"><path d="M0 -13L11.3 6.5L-11.3 6.5Z" fill="#297EA6"></path></g><g transform="translate(388 347)"><path d="M0 -31L26.8 15.5L-26.8 15.5Z" fill="#297EA6"></path></g><g transform="translate(204 257)"><path d="M0 -25L21.7 12.5L-21.7 12.5Z" fill="#297EA6"></path></g><g transform="translate(790 327)"><path d="M0 -19L16.5 9.5L-16.5 9.5Z" fill="#297EA6"></path></g><g transform="translate(178 368)"><path d="M0 -36L31.2 18L-31.2 18Z" fill="#297EA6"></path></g><g transform="translate(671 313)"><path d="M0 -8L6.9 4L-6.9 4Z" fill="#297EA6"></path></g><g transform="translate(651 428)"><path d="M0 -17L14.7 8.5L-14.7 8.5Z" fill="#297EA6"></path></g><g transform="translate(641 147)"><path d="M0 -28L24.2 14L-24.2 14Z" fill="#297EA6"></path></g><g transform="translate(130 10)"><path d="M0 -26L22.5 13L-22.5 13Z" fill="#297EA6"></path></g><g transform="translate(120 435)"><path d="M0 -6L5.2 3L-5.2 3Z" fill="#297EA6"></path></g><g transform="translate(391 78)"><path d="M0 -26L22.5 13L-22.5 13Z" fill="#297EA6"></path></g><g transform="translate(476 25)"><path d="M0 -7L6.1 3.5L-6.1 3.5Z" fill="#297EA6"></path></g><g transform="translate(374 246)"><path d="M0 -28L24.2 14L-24.2 14Z" fill="#297EA6"></path></g><g transform="translate(471 368)"><path d="M0 -8L6.9 4L-6.9 4Z" fill="#297EA6"></path></g><g transform="translate(838 258)"><path d="M0 -20L17.3 10L-17.3 10Z" fill="#297EA6"></path></g><g transform="translate(37 95)"><path d="M0 -12L10.4 6L-10.4 6Z" fill="#297EA6"></path></g><g transform="translate(10 261)"><path d="M0 -23L19.9 11.5L-19.9 11.5Z" fill="#297EA6"></path></g><g transform="translate(22 589)"><path d="M0 -8L6.9 4L-6.9 4Z" fill="#297EA6"></path></g><g transform="translate(221 14)"><path d="M0 -10L8.7 5L-8.7 5Z" fill="#297EA6"></path></g><g transform="translate(510 595)"><path d="M0 -37L32 18.5L-32 18.5Z" fill="#297EA6"></path></g><g transform="translate(346 456)"><path d="M0 -13L11.3 6.5L-11.3 6.5Z" fill="#297EA6"></path></g><g transform="translate(210 595)"><path d="M0 -36L31.2 18L-31.2 18Z" fill="#297EA6"></path></g><g transform="translate(736 403)"><path d="M0 -7L6.1 3.5L-6.1 3.5Z" fill="#297EA6"></path></g><g transform="translate(348 8)"><path d="M0 -27L23.4 13.5L-23.4 13.5Z" fill="#297EA6"></path></g><g transform="translate(294 103)"><path d="M0 -28L24.2 14L-24.2 14Z" fill="#297EA6"></path></g><g transform="translate(4 485)"><path d="M0 -23L19.9 11.5L-19.9 11.5Z" fill="#297EA6"></path></g><g transform="translate(450 541)"><path d="M0 -28L24.2 14L-24.2 14Z" fill="#297EA6"></path></g><g transform="translate(60 194)"><path d="M0 -16L13.9 8L-13.9 8Z" fill="#297EA6"></path></g><g transform="translate(895 464)"><path d="M0 -37L32 18.5L-32 18.5Z" fill="#297EA6"></path></g><g transform="translate(717 92)"><path d="M0 -26L22.5 13L-22.5 13Z" fill="#297EA6"></path></g><g transform="translate(599 252)"><path d="M0 -26L22.5 13L-22.5 13Z" fill="#297EA6"></path></g><g transform="translate(462 214)"><path d="M0 -9L7.8 4.5L-7.8 4.5Z" fill="#297EA6"></path></g><g transform="translate(601 593)"><path d="M0 -35L30.3 17.5L-30.3 17.5Z" fill="#297EA6"></path></g><g transform="translate(432 451)"><path d="M0 -26L22.5 13L-22.5 13Z" fill="#297EA6"></path></g><g transform="translate(10 15)"><path d="M0 -21L18.2 10.5L-18.2 10.5Z" fill="#297EA6"></path></g><g transform="translate(739 264)"><path d="M0 -31L26.8 15.5L-26.8 15.5Z" fill="#297EA6"></path></g><g transform="translate(121 120)"><path d="M0 -6L5.2 3L-5.2 3Z" fill="#297EA6"></path></g><g transform="translate(289 269)"><path d="M0 -27L23.4 13.5L-23.4 13.5Z" fill="#297EA6"></path></g><g transform="translate(148 198)"><path d="M0 -39L33.8 19.5L-33.8 19.5Z" fill="#297EA6"></path></g><g transform="translate(189 487)"><path d="M0 -33L28.6 16.5L-28.6 16.5Z" fill="#297EA6"></path></g></g></svg>